<?xml version="1.0" encoding="utf-8" standalone="no"?>
<!DOCTYPE svg PUBLIC "-//W3C//DTD SVG 1.1//EN"
  "http://www.w3.org/Graphics/SVG/1.1/DTD/svg11.dtd">
<svg xmlns:xlink="http://www.w3.org/1999/xlink" width="516.6pt" height="225.072pt" viewBox="0 0 516.6 225.072" xmlns="http://www.w3.org/2000/svg" version="1.1">
 <metadata>
  <rdf:RDF xmlns:dc="http://purl.org/dc/elements/1.1/" xmlns:cc="http://creativecommons.org/ns#" xmlns:rdf="http://www.w3.org/1999/02/22-rdf-syntax-ns#">
   <cc:Work>
    <dc:type rdf:resource="http://purl.org/dc/dcmitype/StillImage"/>
    <dc:date>2026-06-24T23:18:18.509388</dc:date>
    <dc:format>image/svg+xml</dc:format>
    <dc:creator>
     <cc:Agent>
      <dc:title>Matplotlib v3.10.9, https://matplotlib.org/</dc:title>
     </cc:Agent>
    </dc:creator>
   </cc:Work>
  </rdf:RDF>
 </metadata>
 <defs>
  <style type="text/css">*{stroke-linejoin: round; stroke-linecap: butt}</style>
 </defs>
 <g id="figure_1">
  <g id="patch_1">
   <path d="M 0 225.072 
L 516.6 225.072 
L 516.6 -0 
L 0 -0 
z
" style="fill: #ffffff"/>
  </g>
  <g id="axes_1">
   <g id="patch_2">
    <path d="M 31.752 163.5408 
L 150.048 163.5408 
Q 153.396 163.5408 153.396 160.2144 
L 153.396 64.8576 
Q 153.396 61.5312 150.048 61.5312 
L 31.752 61.5312 
Q 28.404 61.5312 28.404 64.8576 
L 28.404 160.2144 
Q 28.404 163.5408 31.752 163.5408 
z
" clip-path="url(#p464eaebc76)" style="fill: #d6e4f0; stroke: #2f5496; stroke-width: 1.4; stroke-linejoin: miter"/>
   </g>
   <g id="patch_3">
    <path d="M 187.992 174.6288 
L 328.608 174.6288 
Q 331.956 174.6288 331.956 171.3024 
L 331.956 53.7696 
Q 331.956 50.4432 328.608 50.4432 
L 187.992 50.4432 
Q 184.644 50.4432 184.644 53.7696 
L 184.644 171.3024 
Q 184.644 174.6288 187.992 174.6288 
z
" clip-path="url(#p464eaebc76)" style="fill: #e2efda; stroke: #548235; stroke-width: 1.4; stroke-linejoin: miter"/>
   </g>
   <g id="patch_4">
    <path d="M 366.552 163.5408 
L 484.848 163.5408 
Q 488.196 163.5408 488.196 160.2144 
L 488.196 64.8576 
Q 488.196 61.5312 484.848 61.5312 
L 366.552 61.5312 
Q 363.204 61.5312 363.204 64.8576 
L 363.204 160.2144 
Q 363.204 163.5408 366.552 163.5408 
z
" clip-path="url(#p464eaebc76)" style="fill: #fce4d6; stroke: #c55a11; stroke-width: 1.4; stroke-linejoin: miter"/>
   </g>
   <g id="patch_5">
    <path d="M 157.069182 112.536 
Q 169.018906 112.536 179.515186 112.536 
" clip-path="url(#p464eaebc76)" style="fill: none; stroke: #2f5496; stroke-width: 1.3; stroke-linecap: round"/>
    <path d="M 175.115186 110.336 
L 179.515186 112.536 
L 175.115186 114.736 
z
" clip-path="url(#p464eaebc76)" style="fill: #2f5496; stroke: #2f5496; stroke-width: 1.3; stroke-linecap: round"/>
   </g>
   <g id="patch_6">
    <path d="M 335.629182 112.536 
Q 347.578906 112.536 358.075186 112.536 
" clip-path="url(#p464eaebc76)" style="fill: none; stroke: #2f5496; stroke-width: 1.3; stroke-linecap: round"/>
    <path d="M 353.675186 110.336 
L 358.075186 112.536 
L 353.675186 114.736 
z
" clip-path="url(#p464eaebc76)" style="fill: #2f5496; stroke: #2f5496; stroke-width: 1.3; stroke-linecap: round"/>
   </g>
   <g id="text_1">
    <!-- Capa técnica -->
    <g style="fill: #404040" transform="translate(62.024375 101.466125) scale(0.08 -0.08)">
     <defs>
      <path id="DejaVuSans-Bold-43" d="M 4288 256 
Q 3956 84 3597 -3 
Q 3238 -91 2847 -91 
Q 1681 -91 1000 561 
Q 319 1213 319 2328 
Q 319 3447 1000 4098 
Q 1681 4750 2847 4750 
Q 3238 4750 3597 4662 
Q 3956 4575 4288 4403 
L 4288 3438 
Q 3953 3666 3628 3772 
Q 3303 3878 2944 3878 
Q 2300 3878 1931 3465 
Q 1563 3053 1563 2328 
Q 1563 1606 1931 1193 
Q 2300 781 2944 781 
Q 3303 781 3628 887 
Q 3953 994 4288 1222 
L 4288 256 
z
" transform="scale(0.015625)"/>
      <path id="DejaVuSans-Bold-61" d="M 2106 1575 
Q 1756 1575 1579 1456 
Q 1403 1338 1403 1106 
Q 1403 894 1545 773 
Q 1688 653 1941 653 
Q 2256 653 2472 879 
Q 2688 1106 2688 1447 
L 2688 1575 
L 2106 1575 
z
M 3816 1997 
L 3816 0 
L 2688 0 
L 2688 519 
Q 2463 200 2181 54 
Q 1900 -91 1497 -91 
Q 953 -91 614 226 
Q 275 544 275 1050 
Q 275 1666 698 1953 
Q 1122 2241 2028 2241 
L 2688 2241 
L 2688 2328 
Q 2688 2594 2478 2717 
Q 2269 2841 1825 2841 
Q 1466 2841 1156 2769 
Q 847 2697 581 2553 
L 581 3406 
Q 941 3494 1303 3539 
Q 1666 3584 2028 3584 
Q 2975 3584 3395 3211 
Q 3816 2838 3816 1997 
z
" transform="scale(0.015625)"/>
      <path id="DejaVuSans-Bold-70" d="M 1656 506 
L 1656 -1331 
L 538 -1331 
L 538 3500 
L 1656 3500 
L 1656 2988 
Q 1888 3294 2169 3439 
Q 2450 3584 2816 3584 
Q 3463 3584 3878 3070 
Q 4294 2556 4294 1747 
Q 4294 938 3878 423 
Q 3463 -91 2816 -91 
Q 2450 -91 2169 54 
Q 1888 200 1656 506 
z
M 2400 2772 
Q 2041 2772 1848 2508 
Q 1656 2244 1656 1747 
Q 1656 1250 1848 986 
Q 2041 722 2400 722 
Q 2759 722 2948 984 
Q 3138 1247 3138 1747 
Q 3138 2247 2948 2509 
Q 2759 2772 2400 2772 
z
" transform="scale(0.015625)"/>
      <path id="DejaVuSans-Bold-20" transform="scale(0.015625)"/>
      <path id="DejaVuSans-Bold-74" d="M 1759 4494 
L 1759 3500 
L 2913 3500 
L 2913 2700 
L 1759 2700 
L 1759 1216 
Q 1759 972 1856 886 
Q 1953 800 2241 800 
L 2816 800 
L 2816 0 
L 1856 0 
Q 1194 0 917 276 
Q 641 553 641 1216 
L 641 2700 
L 84 2700 
L 84 3500 
L 641 3500 
L 641 4494 
L 1759 4494 
z
" transform="scale(0.015625)"/>
      <path id="DejaVuSans-Bold-e9" d="M 4031 1759 
L 4031 1441 
L 1416 1441 
Q 1456 1047 1700 850 
Q 1944 653 2381 653 
Q 2734 653 3104 758 
Q 3475 863 3866 1075 
L 3866 213 
Q 3469 63 3072 -14 
Q 2675 -91 2278 -91 
Q 1328 -91 801 392 
Q 275 875 275 1747 
Q 275 2603 792 3093 
Q 1309 3584 2216 3584 
Q 3041 3584 3536 3087 
Q 4031 2591 4031 1759 
z
M 2881 2131 
Q 2881 2450 2695 2645 
Q 2509 2841 2209 2841 
Q 1884 2841 1681 2658 
Q 1478 2475 1428 2131 
L 2881 2131 
z
M 2702 5119 
L 3586 5119 
L 2433 3944 
L 1821 3944 
L 2702 5119 
z
" transform="scale(0.015625)"/>
      <path id="DejaVuSans-Bold-63" d="M 3366 3391 
L 3366 2478 
Q 3138 2634 2908 2709 
Q 2678 2784 2431 2784 
Q 1963 2784 1702 2511 
Q 1441 2238 1441 1747 
Q 1441 1256 1702 982 
Q 1963 709 2431 709 
Q 2694 709 2930 787 
Q 3166 866 3366 1019 
L 3366 103 
Q 3103 6 2833 -42 
Q 2563 -91 2291 -91 
Q 1344 -91 809 395 
Q 275 881 275 1747 
Q 275 2613 809 3098 
Q 1344 3584 2291 3584 
Q 2566 3584 2833 3536 
Q 3100 3488 3366 3391 
z
" transform="scale(0.015625)"/>
      <path id="DejaVuSans-Bold-6e" d="M 4056 2131 
L 4056 0 
L 2931 0 
L 2931 347 
L 2931 1631 
Q 2931 2084 2911 2256 
Q 2891 2428 2841 2509 
Q 2775 2619 2662 2680 
Q 2550 2741 2406 2741 
Q 2056 2741 1856 2470 
Q 1656 2200 1656 1722 
L 1656 0 
L 538 0 
L 538 3500 
L 1656 3500 
L 1656 2988 
Q 1909 3294 2193 3439 
Q 2478 3584 2822 3584 
Q 3428 3584 3742 3212 
Q 4056 2841 4056 2131 
z
" transform="scale(0.015625)"/>
      <path id="DejaVuSans-Bold-69" d="M 538 3500 
L 1656 3500 
L 1656 0 
L 538 0 
L 538 3500 
z
M 538 4863 
L 1656 4863 
L 1656 3950 
L 538 3950 
L 538 4863 
z
" transform="scale(0.015625)"/>
     </defs>
     <use xlink:href="#DejaVuSans-Bold-43"/>
     <use xlink:href="#DejaVuSans-Bold-61" transform="translate(73.388672 0)"/>
     <use xlink:href="#DejaVuSans-Bold-70" transform="translate(140.869141 0)"/>
     <use xlink:href="#DejaVuSans-Bold-61" transform="translate(212.451172 0)"/>
     <use xlink:href="#DejaVuSans-Bold-20" transform="translate(279.931641 0)"/>
     <use xlink:href="#DejaVuSans-Bold-74" transform="translate(314.746094 0)"/>
     <use xlink:href="#DejaVuSans-Bold-e9" transform="translate(362.548828 0)"/>
     <use xlink:href="#DejaVuSans-Bold-63" transform="translate(430.371094 0)"/>
     <use xlink:href="#DejaVuSans-Bold-6e" transform="translate(489.648438 0)"/>
     <use xlink:href="#DejaVuSans-Bold-69" transform="translate(560.839844 0)"/>
     <use xlink:href="#DejaVuSans-Bold-63" transform="translate(595.117188 0)"/>
     <use xlink:href="#DejaVuSans-Bold-61" transform="translate(654.394531 0)"/>
    </g>
    <!-- Contrato OpenAPI -->
    <g style="fill: #404040" transform="translate(50.3925 110.424375) scale(0.08 -0.08)">
     <defs>
      <path id="DejaVuSans-Bold-6f" d="M 2203 2784 
Q 1831 2784 1636 2517 
Q 1441 2250 1441 1747 
Q 1441 1244 1636 976 
Q 1831 709 2203 709 
Q 2569 709 2762 976 
Q 2956 1244 2956 1747 
Q 2956 2250 2762 2517 
Q 2569 2784 2203 2784 
z
M 2203 3584 
Q 3106 3584 3614 3096 
Q 4122 2609 4122 1747 
Q 4122 884 3614 396 
Q 3106 -91 2203 -91 
Q 1297 -91 786 396 
Q 275 884 275 1747 
Q 275 2609 786 3096 
Q 1297 3584 2203 3584 
z
" transform="scale(0.015625)"/>
      <path id="DejaVuSans-Bold-72" d="M 3138 2547 
Q 2991 2616 2845 2648 
Q 2700 2681 2553 2681 
Q 2122 2681 1889 2404 
Q 1656 2128 1656 1613 
L 1656 0 
L 538 0 
L 538 3500 
L 1656 3500 
L 1656 2925 
Q 1872 3269 2151 3426 
Q 2431 3584 2822 3584 
Q 2878 3584 2943 3579 
Q 3009 3575 3134 3559 
L 3138 2547 
z
" transform="scale(0.015625)"/>
      <path id="DejaVuSans-Bold-4f" d="M 2719 3878 
Q 2169 3878 1866 3472 
Q 1563 3066 1563 2328 
Q 1563 1594 1866 1187 
Q 2169 781 2719 781 
Q 3272 781 3575 1187 
Q 3878 1594 3878 2328 
Q 3878 3066 3575 3472 
Q 3272 3878 2719 3878 
z
M 2719 4750 
Q 3844 4750 4481 4106 
Q 5119 3463 5119 2328 
Q 5119 1197 4481 553 
Q 3844 -91 2719 -91 
Q 1597 -91 958 553 
Q 319 1197 319 2328 
Q 319 3463 958 4106 
Q 1597 4750 2719 4750 
z
" transform="scale(0.015625)"/>
      <path id="DejaVuSans-Bold-65" d="M 4031 1759 
L 4031 1441 
L 1416 1441 
Q 1456 1047 1700 850 
Q 1944 653 2381 653 
Q 2734 653 3104 758 
Q 3475 863 3866 1075 
L 3866 213 
Q 3469 63 3072 -14 
Q 2675 -91 2278 -91 
Q 1328 -91 801 392 
Q 275 875 275 1747 
Q 275 2603 792 3093 
Q 1309 3584 2216 3584 
Q 3041 3584 3536 3087 
Q 4031 2591 4031 1759 
z
M 2881 2131 
Q 2881 2450 2695 2645 
Q 2509 2841 2209 2841 
Q 1884 2841 1681 2658 
Q 1478 2475 1428 2131 
L 2881 2131 
z
" transform="scale(0.015625)"/>
      <path id="DejaVuSans-Bold-41" d="M 3419 850 
L 1538 850 
L 1241 0 
L 31 0 
L 1759 4666 
L 3194 4666 
L 4922 0 
L 3713 0 
L 3419 850 
z
M 1838 1716 
L 3116 1716 
L 2478 3572 
L 1838 1716 
z
" transform="scale(0.015625)"/>
      <path id="DejaVuSans-Bold-50" d="M 588 4666 
L 2584 4666 
Q 3475 4666 3951 4270 
Q 4428 3875 4428 3144 
Q 4428 2409 3951 2014 
Q 3475 1619 2584 1619 
L 1791 1619 
L 1791 0 
L 588 0 
L 588 4666 
z
M 1791 3794 
L 1791 2491 
L 2456 2491 
Q 2806 2491 2997 2661 
Q 3188 2831 3188 3144 
Q 3188 3456 2997 3625 
Q 2806 3794 2456 3794 
L 1791 3794 
z
" transform="scale(0.015625)"/>
      <path id="DejaVuSans-Bold-49" d="M 588 4666 
L 1791 4666 
L 1791 0 
L 588 0 
L 588 4666 
z
" transform="scale(0.015625)"/>
     </defs>
     <use xlink:href="#DejaVuSans-Bold-43"/>
     <use xlink:href="#DejaVuSans-Bold-6f" transform="translate(73.388672 0)"/>
     <use xlink:href="#DejaVuSans-Bold-6e" transform="translate(142.089844 0)"/>
     <use xlink:href="#DejaVuSans-Bold-74" transform="translate(213.28125 0)"/>
     <use xlink:href="#DejaVuSans-Bold-72" transform="translate(261.083984 0)"/>
     <use xlink:href="#DejaVuSans-Bold-61" transform="translate(310.400391 0)"/>
     <use xlink:href="#DejaVuSans-Bold-74" transform="translate(377.880859 0)"/>
     <use xlink:href="#DejaVuSans-Bold-6f" transform="translate(425.683594 0)"/>
     <use xlink:href="#DejaVuSans-Bold-20" transform="translate(494.384766 0)"/>
     <use xlink:href="#DejaVuSans-Bold-4f" transform="translate(529.199219 0)"/>
     <use xlink:href="#DejaVuSans-Bold-70" transform="translate(614.208984 0)"/>
     <use xlink:href="#DejaVuSans-Bold-65" transform="translate(685.791016 0)"/>
     <use xlink:href="#DejaVuSans-Bold-6e" transform="translate(753.613281 0)"/>
     <use xlink:href="#DejaVuSans-Bold-41" transform="translate(824.804688 0)"/>
     <use xlink:href="#DejaVuSans-Bold-50" transform="translate(902.197266 0)"/>
     <use xlink:href="#DejaVuSans-Bold-49" transform="translate(975.488281 0)"/>
    </g>
    <!-- (paths, operations, -->
    <g style="fill: #404040" transform="translate(47.6825 119.382625) scale(0.08 -0.08)">
     <defs>
      <path id="DejaVuSans-Bold-28" d="M 2413 -844 
L 1484 -844 
Q 1006 -72 778 623 
Q 550 1319 550 2003 
Q 550 2688 779 3389 
Q 1009 4091 1484 4856 
L 2413 4856 
Q 2013 4116 1813 3408 
Q 1613 2700 1613 2009 
Q 1613 1319 1811 609 
Q 2009 -100 2413 -844 
z
" transform="scale(0.015625)"/>
      <path id="DejaVuSans-Bold-68" d="M 4056 2131 
L 4056 0 
L 2931 0 
L 2931 347 
L 2931 1625 
Q 2931 2084 2911 2256 
Q 2891 2428 2841 2509 
Q 2775 2619 2662 2680 
Q 2550 2741 2406 2741 
Q 2056 2741 1856 2470 
Q 1656 2200 1656 1722 
L 1656 0 
L 538 0 
L 538 4863 
L 1656 4863 
L 1656 2988 
Q 1909 3294 2193 3439 
Q 2478 3584 2822 3584 
Q 3428 3584 3742 3212 
Q 4056 2841 4056 2131 
z
" transform="scale(0.015625)"/>
      <path id="DejaVuSans-Bold-73" d="M 3272 3391 
L 3272 2541 
Q 2913 2691 2578 2766 
Q 2244 2841 1947 2841 
Q 1628 2841 1473 2761 
Q 1319 2681 1319 2516 
Q 1319 2381 1436 2309 
Q 1553 2238 1856 2203 
L 2053 2175 
Q 2913 2066 3209 1816 
Q 3506 1566 3506 1031 
Q 3506 472 3093 190 
Q 2681 -91 1863 -91 
Q 1516 -91 1145 -36 
Q 775 19 384 128 
L 384 978 
Q 719 816 1070 734 
Q 1422 653 1784 653 
Q 2113 653 2278 743 
Q 2444 834 2444 1013 
Q 2444 1163 2330 1236 
Q 2216 1309 1875 1350 
L 1678 1375 
Q 931 1469 631 1722 
Q 331 1975 331 2491 
Q 331 3047 712 3315 
Q 1094 3584 1881 3584 
Q 2191 3584 2531 3537 
Q 2872 3491 3272 3391 
z
" transform="scale(0.015625)"/>
      <path id="DejaVuSans-Bold-2c" d="M 653 1209 
L 1778 1209 
L 1778 256 
L 1006 -909 
L 341 -909 
L 653 256 
L 653 1209 
z
" transform="scale(0.015625)"/>
     </defs>
     <use xlink:href="#DejaVuSans-Bold-28"/>
     <use xlink:href="#DejaVuSans-Bold-70" transform="translate(45.703125 0)"/>
     <use xlink:href="#DejaVuSans-Bold-61" transform="translate(117.285156 0)"/>
     <use xlink:href="#DejaVuSans-Bold-74" transform="translate(184.765625 0)"/>
     <use xlink:href="#DejaVuSans-Bold-68" transform="translate(232.568359 0)"/>
     <use xlink:href="#DejaVuSans-Bold-73" transform="translate(303.759766 0)"/>
     <use xlink:href="#DejaVuSans-Bold-2c" transform="translate(363.28125 0)"/>
     <use xlink:href="#DejaVuSans-Bold-20" transform="translate(401.269531 0)"/>
     <use xlink:href="#DejaVuSans-Bold-6f" transform="translate(436.083984 0)"/>
     <use xlink:href="#DejaVuSans-Bold-70" transform="translate(504.785156 0)"/>
     <use xlink:href="#DejaVuSans-Bold-65" transform="translate(576.367188 0)"/>
     <use xlink:href="#DejaVuSans-Bold-72" transform="translate(644.189453 0)"/>
     <use xlink:href="#DejaVuSans-Bold-61" transform="translate(693.505859 0)"/>
     <use xlink:href="#DejaVuSans-Bold-74" transform="translate(760.986328 0)"/>
     <use xlink:href="#DejaVuSans-Bold-69" transform="translate(808.789062 0)"/>
     <use xlink:href="#DejaVuSans-Bold-6f" transform="translate(843.066406 0)"/>
     <use xlink:href="#DejaVuSans-Bold-6e" transform="translate(911.767578 0)"/>
     <use xlink:href="#DejaVuSans-Bold-73" transform="translate(982.958984 0)"/>
     <use xlink:href="#DejaVuSans-Bold-2c" transform="translate(1042.480469 0)"/>
    </g>
    <!-- schemas) -->
    <g style="fill: #404040" transform="translate(69.51125 128.340875) scale(0.08 -0.08)">
     <defs>
      <path id="DejaVuSans-Bold-6d" d="M 3781 2919 
Q 3994 3244 4286 3414 
Q 4578 3584 4928 3584 
Q 5531 3584 5847 3212 
Q 6163 2841 6163 2131 
L 6163 0 
L 5038 0 
L 5038 1825 
Q 5041 1866 5042 1909 
Q 5044 1953 5044 2034 
Q 5044 2406 4934 2573 
Q 4825 2741 4581 2741 
Q 4263 2741 4089 2478 
Q 3916 2216 3909 1719 
L 3909 0 
L 2784 0 
L 2784 1825 
Q 2784 2406 2684 2573 
Q 2584 2741 2328 2741 
Q 2006 2741 1831 2477 
Q 1656 2213 1656 1722 
L 1656 0 
L 531 0 
L 531 3500 
L 1656 3500 
L 1656 2988 
Q 1863 3284 2130 3434 
Q 2397 3584 2719 3584 
Q 3081 3584 3359 3409 
Q 3638 3234 3781 2919 
z
" transform="scale(0.015625)"/>
      <path id="DejaVuSans-Bold-29" d="M 513 -844 
Q 913 -100 1113 609 
Q 1313 1319 1313 2009 
Q 1313 2700 1113 3408 
Q 913 4116 513 4856 
L 1441 4856 
Q 1916 4091 2145 3389 
Q 2375 2688 2375 2003 
Q 2375 1319 2147 623 
Q 1919 -72 1441 -844 
L 513 -844 
z
" transform="scale(0.015625)"/>
     </defs>
     <use xlink:href="#DejaVuSans-Bold-73"/>
     <use xlink:href="#DejaVuSans-Bold-63" transform="translate(59.521484 0)"/>
     <use xlink:href="#DejaVuSans-Bold-68" transform="translate(118.798828 0)"/>
     <use xlink:href="#DejaVuSans-Bold-65" transform="translate(189.990234 0)"/>
     <use xlink:href="#DejaVuSans-Bold-6d" transform="translate(257.8125 0)"/>
     <use xlink:href="#DejaVuSans-Bold-61" transform="translate(362.011719 0)"/>
     <use xlink:href="#DejaVuSans-Bold-73" transform="translate(429.492188 0)"/>
     <use xlink:href="#DejaVuSans-Bold-29" transform="translate(489.013672 0)"/>
    </g>
   </g>
   <g id="text_2">
    <!-- Modelo de alineación -->
    <g style="fill: #404040" transform="translate(210.474375 105.754) scale(0.08 -0.08)">
     <defs>
      <path id="DejaVuSans-Bold-4d" d="M 588 4666 
L 2119 4666 
L 3181 2169 
L 4250 4666 
L 5778 4666 
L 5778 0 
L 4641 0 
L 4641 3413 
L 3566 897 
L 2803 897 
L 1728 3413 
L 1728 0 
L 588 0 
L 588 4666 
z
" transform="scale(0.015625)"/>
      <path id="DejaVuSans-Bold-64" d="M 2919 2988 
L 2919 4863 
L 4044 4863 
L 4044 0 
L 2919 0 
L 2919 506 
Q 2688 197 2409 53 
Q 2131 -91 1766 -91 
Q 1119 -91 703 423 
Q 288 938 288 1747 
Q 288 2556 703 3070 
Q 1119 3584 1766 3584 
Q 2128 3584 2408 3439 
Q 2688 3294 2919 2988 
z
M 2181 722 
Q 2541 722 2730 984 
Q 2919 1247 2919 1747 
Q 2919 2247 2730 2509 
Q 2541 2772 2181 2772 
Q 1825 2772 1636 2509 
Q 1447 2247 1447 1747 
Q 1447 1247 1636 984 
Q 1825 722 2181 722 
z
" transform="scale(0.015625)"/>
      <path id="DejaVuSans-Bold-6c" d="M 538 4863 
L 1656 4863 
L 1656 0 
L 538 0 
L 538 4863 
z
" transform="scale(0.015625)"/>
      <path id="DejaVuSans-Bold-f3" d="M 2203 2784 
Q 1831 2784 1636 2517 
Q 1441 2250 1441 1747 
Q 1441 1244 1636 976 
Q 1831 709 2203 709 
Q 2569 709 2762 976 
Q 2956 1244 2956 1747 
Q 2956 2250 2762 2517 
Q 2569 2784 2203 2784 
z
M 2203 3584 
Q 3106 3584 3614 3096 
Q 4122 2609 4122 1747 
Q 4122 884 3614 396 
Q 3106 -91 2203 -91 
Q 1297 -91 786 396 
Q 275 884 275 1747 
Q 275 2609 786 3096 
Q 1297 3584 2203 3584 
z
M 2694 5119 
L 3578 5119 
L 2425 3944 
L 1813 3944 
L 2694 5119 
z
" transform="scale(0.015625)"/>
     </defs>
     <use xlink:href="#DejaVuSans-Bold-4d"/>
     <use xlink:href="#DejaVuSans-Bold-6f" transform="translate(99.511719 0)"/>
     <use xlink:href="#DejaVuSans-Bold-64" transform="translate(168.212891 0)"/>
     <use xlink:href="#DejaVuSans-Bold-65" transform="translate(239.794922 0)"/>
     <use xlink:href="#DejaVuSans-Bold-6c" transform="translate(307.617188 0)"/>
     <use xlink:href="#DejaVuSans-Bold-6f" transform="translate(341.894531 0)"/>
     <use xlink:href="#DejaVuSans-Bold-20" transform="translate(410.595703 0)"/>
     <use xlink:href="#DejaVuSans-Bold-64" transform="translate(445.410156 0)"/>
     <use xlink:href="#DejaVuSans-Bold-65" transform="translate(516.992188 0)"/>
     <use xlink:href="#DejaVuSans-Bold-20" transform="translate(584.814453 0)"/>
     <use xlink:href="#DejaVuSans-Bold-61" transform="translate(619.628906 0)"/>
     <use xlink:href="#DejaVuSans-Bold-6c" transform="translate(687.109375 0)"/>
     <use xlink:href="#DejaVuSans-Bold-69" transform="translate(721.386719 0)"/>
     <use xlink:href="#DejaVuSans-Bold-6e" transform="translate(755.664062 0)"/>
     <use xlink:href="#DejaVuSans-Bold-65" transform="translate(826.855469 0)"/>
     <use xlink:href="#DejaVuSans-Bold-61" transform="translate(894.677734 0)"/>
     <use xlink:href="#DejaVuSans-Bold-63" transform="translate(962.158203 0)"/>
     <use xlink:href="#DejaVuSans-Bold-69" transform="translate(1021.435547 0)"/>
     <use xlink:href="#DejaVuSans-Bold-f3" transform="translate(1055.712891 0)"/>
     <use xlink:href="#DejaVuSans-Bold-6e" transform="translate(1124.414062 0)"/>
    </g>
    <!-- S + E + C -->
    <g style="fill: #404040" transform="translate(237.4775 114.71225) scale(0.08 -0.08)">
     <defs>
      <path id="DejaVuSans-Bold-53" d="M 3834 4519 
L 3834 3531 
Q 3450 3703 3084 3790 
Q 2719 3878 2394 3878 
Q 1963 3878 1756 3759 
Q 1550 3641 1550 3391 
Q 1550 3203 1689 3098 
Q 1828 2994 2194 2919 
L 2706 2816 
Q 3484 2659 3812 2340 
Q 4141 2022 4141 1434 
Q 4141 663 3683 286 
Q 3225 -91 2284 -91 
Q 1841 -91 1394 -6 
Q 947 78 500 244 
L 500 1259 
Q 947 1022 1364 901 
Q 1781 781 2169 781 
Q 2563 781 2772 912 
Q 2981 1044 2981 1288 
Q 2981 1506 2839 1625 
Q 2697 1744 2272 1838 
L 1806 1941 
Q 1106 2091 782 2419 
Q 459 2747 459 3303 
Q 459 4000 909 4375 
Q 1359 4750 2203 4750 
Q 2588 4750 2994 4692 
Q 3400 4634 3834 4519 
z
" transform="scale(0.015625)"/>
      <path id="DejaVuSans-Bold-2b" d="M 3053 4013 
L 3053 2375 
L 4684 2375 
L 4684 1638 
L 3053 1638 
L 3053 0 
L 2309 0 
L 2309 1638 
L 678 1638 
L 678 2375 
L 2309 2375 
L 2309 4013 
L 3053 4013 
z
" transform="scale(0.015625)"/>
      <path id="DejaVuSans-Bold-45" d="M 588 4666 
L 3834 4666 
L 3834 3756 
L 1791 3756 
L 1791 2888 
L 3713 2888 
L 3713 1978 
L 1791 1978 
L 1791 909 
L 3903 909 
L 3903 0 
L 588 0 
L 588 4666 
z
" transform="scale(0.015625)"/>
     </defs>
     <use xlink:href="#DejaVuSans-Bold-53"/>
     <use xlink:href="#DejaVuSans-Bold-20" transform="translate(72.021484 0)"/>
     <use xlink:href="#DejaVuSans-Bold-2b" transform="translate(106.835938 0)"/>
     <use xlink:href="#DejaVuSans-Bold-20" transform="translate(190.625 0)"/>
     <use xlink:href="#DejaVuSans-Bold-45" transform="translate(225.439453 0)"/>
     <use xlink:href="#DejaVuSans-Bold-20" transform="translate(293.75 0)"/>
     <use xlink:href="#DejaVuSans-Bold-2b" transform="translate(328.564453 0)"/>
     <use xlink:href="#DejaVuSans-Bold-20" transform="translate(412.353516 0)"/>
     <use xlink:href="#DejaVuSans-Bold-43" transform="translate(447.167969 0)"/>
    </g>
    <!-- → AlignmentScore -->
    <g style="fill: #404040" transform="translate(217.680625 123.6705) scale(0.08 -0.08)">
     <defs>
      <path id="DejaVuSans-Bold-2192" d="M 5050 2225 
L 5050 1788 
L 3822 559 
L 3369 1013 
L 3988 1631 
L 366 1631 
L 366 2381 
L 3988 2381 
L 3369 3000 
L 3822 3453 
L 5050 2225 
z
" transform="scale(0.015625)"/>
      <path id="DejaVuSans-Bold-67" d="M 2919 594 
Q 2688 288 2409 144 
Q 2131 0 1766 0 
Q 1125 0 706 504 
Q 288 1009 288 1791 
Q 288 2575 706 3076 
Q 1125 3578 1766 3578 
Q 2131 3578 2409 3434 
Q 2688 3291 2919 2981 
L 2919 3500 
L 4044 3500 
L 4044 353 
Q 4044 -491 3511 -936 
Q 2978 -1381 1966 -1381 
Q 1638 -1381 1331 -1331 
Q 1025 -1281 716 -1178 
L 716 -306 
Q 1009 -475 1290 -558 
Q 1572 -641 1856 -641 
Q 2406 -641 2662 -400 
Q 2919 -159 2919 353 
L 2919 594 
z
M 2181 2772 
Q 1834 2772 1640 2515 
Q 1447 2259 1447 1791 
Q 1447 1309 1634 1061 
Q 1822 813 2181 813 
Q 2531 813 2725 1069 
Q 2919 1325 2919 1791 
Q 2919 2259 2725 2515 
Q 2531 2772 2181 2772 
z
" transform="scale(0.015625)"/>
     </defs>
     <use xlink:href="#DejaVuSans-Bold-2192"/>
     <use xlink:href="#DejaVuSans-Bold-20" transform="translate(83.789062 0)"/>
     <use xlink:href="#DejaVuSans-Bold-41" transform="translate(118.603516 0)"/>
     <use xlink:href="#DejaVuSans-Bold-6c" transform="translate(195.996094 0)"/>
     <use xlink:href="#DejaVuSans-Bold-69" transform="translate(230.273438 0)"/>
     <use xlink:href="#DejaVuSans-Bold-67" transform="translate(264.550781 0)"/>
     <use xlink:href="#DejaVuSans-Bold-6e" transform="translate(336.132812 0)"/>
     <use xlink:href="#DejaVuSans-Bold-6d" transform="translate(407.324219 0)"/>
     <use xlink:href="#DejaVuSans-Bold-65" transform="translate(511.523438 0)"/>
     <use xlink:href="#DejaVuSans-Bold-6e" transform="translate(579.345703 0)"/>
     <use xlink:href="#DejaVuSans-Bold-74" transform="translate(650.537109 0)"/>
     <use xlink:href="#DejaVuSans-Bold-53" transform="translate(698.339844 0)"/>
     <use xlink:href="#DejaVuSans-Bold-63" transform="translate(770.361328 0)"/>
     <use xlink:href="#DejaVuSans-Bold-6f" transform="translate(829.638672 0)"/>
     <use xlink:href="#DejaVuSans-Bold-72" transform="translate(898.339844 0)"/>
     <use xlink:href="#DejaVuSans-Bold-65" transform="translate(947.65625 0)"/>
    </g>
   </g>
   <g id="text_3">
    <!-- Capa de negocio -->
    <g style="fill: #404040" transform="translate(388.47875 101.243625) scale(0.08 -0.08)">
     <use xlink:href="#DejaVuSans-Bold-43"/>
     <use xlink:href="#DejaVuSans-Bold-61" transform="translate(73.388672 0)"/>
     <use xlink:href="#DejaVuSans-Bold-70" transform="translate(140.869141 0)"/>
     <use xlink:href="#DejaVuSans-Bold-61" transform="translate(212.451172 0)"/>
     <use xlink:href="#DejaVuSans-Bold-20" transform="translate(279.931641 0)"/>
     <use xlink:href="#DejaVuSans-Bold-64" transform="translate(314.746094 0)"/>
     <use xlink:href="#DejaVuSans-Bold-65" transform="translate(386.328125 0)"/>
     <use xlink:href="#DejaVuSans-Bold-20" transform="translate(454.150391 0)"/>
     <use xlink:href="#DejaVuSans-Bold-6e" transform="translate(488.964844 0)"/>
     <use xlink:href="#DejaVuSans-Bold-65" transform="translate(560.15625 0)"/>
     <use xlink:href="#DejaVuSans-Bold-67" transform="translate(627.978516 0)"/>
     <use xlink:href="#DejaVuSans-Bold-6f" transform="translate(699.560547 0)"/>
     <use xlink:href="#DejaVuSans-Bold-63" transform="translate(768.261719 0)"/>
     <use xlink:href="#DejaVuSans-Bold-69" transform="translate(827.539062 0)"/>
     <use xlink:href="#DejaVuSans-Bold-6f" transform="translate(861.816406 0)"/>
    </g>
    <!-- Service Domain BIAN -->
    <g style="fill: #404040" transform="translate(378.150625 110.264375) scale(0.08 -0.08)">
     <defs>
      <path id="DejaVuSans-Bold-76" d="M 97 3500 
L 1216 3500 
L 2088 1081 
L 2956 3500 
L 4078 3500 
L 2700 0 
L 1472 0 
L 97 3500 
z
" transform="scale(0.015625)"/>
      <path id="DejaVuSans-Bold-44" d="M 1791 3756 
L 1791 909 
L 2222 909 
Q 2959 909 3348 1275 
Q 3738 1641 3738 2338 
Q 3738 3031 3350 3393 
Q 2963 3756 2222 3756 
L 1791 3756 
z
M 588 4666 
L 1856 4666 
Q 2919 4666 3439 4514 
Q 3959 4363 4331 4000 
Q 4659 3684 4818 3271 
Q 4978 2859 4978 2338 
Q 4978 1809 4818 1395 
Q 4659 981 4331 666 
Q 3956 303 3431 151 
Q 2906 0 1856 0 
L 588 0 
L 588 4666 
z
" transform="scale(0.015625)"/>
      <path id="DejaVuSans-Bold-42" d="M 2456 2859 
Q 2741 2859 2887 2984 
Q 3034 3109 3034 3353 
Q 3034 3594 2887 3720 
Q 2741 3847 2456 3847 
L 1791 3847 
L 1791 2859 
L 2456 2859 
z
M 2497 819 
Q 2859 819 3042 972 
Q 3225 1125 3225 1434 
Q 3225 1738 3044 1889 
Q 2863 2041 2497 2041 
L 1791 2041 
L 1791 819 
L 2497 819 
z
M 3616 2497 
Q 4003 2384 4215 2081 
Q 4428 1778 4428 1338 
Q 4428 663 3972 331 
Q 3516 0 2584 0 
L 588 0 
L 588 4666 
L 2394 4666 
Q 3366 4666 3802 4372 
Q 4238 4078 4238 3431 
Q 4238 3091 4078 2852 
Q 3919 2613 3616 2497 
z
" transform="scale(0.015625)"/>
      <path id="DejaVuSans-Bold-4e" d="M 588 4666 
L 1931 4666 
L 3628 1466 
L 3628 4666 
L 4769 4666 
L 4769 0 
L 3425 0 
L 1728 3200 
L 1728 0 
L 588 0 
L 588 4666 
z
" transform="scale(0.015625)"/>
     </defs>
     <use xlink:href="#DejaVuSans-Bold-53"/>
     <use xlink:href="#DejaVuSans-Bold-65" transform="translate(72.021484 0)"/>
     <use xlink:href="#DejaVuSans-Bold-72" transform="translate(139.84375 0)"/>
     <use xlink:href="#DejaVuSans-Bold-76" transform="translate(189.160156 0)"/>
     <use xlink:href="#DejaVuSans-Bold-69" transform="translate(254.345703 0)"/>
     <use xlink:href="#DejaVuSans-Bold-63" transform="translate(288.623047 0)"/>
     <use xlink:href="#DejaVuSans-Bold-65" transform="translate(347.900391 0)"/>
     <use xlink:href="#DejaVuSans-Bold-20" transform="translate(415.722656 0)"/>
     <use xlink:href="#DejaVuSans-Bold-44" transform="translate(450.537109 0)"/>
     <use xlink:href="#DejaVuSans-Bold-6f" transform="translate(533.544922 0)"/>
     <use xlink:href="#DejaVuSans-Bold-6d" transform="translate(602.246094 0)"/>
     <use xlink:href="#DejaVuSans-Bold-61" transform="translate(706.445312 0)"/>
     <use xlink:href="#DejaVuSans-Bold-69" transform="translate(773.925781 0)"/>
     <use xlink:href="#DejaVuSans-Bold-6e" transform="translate(808.203125 0)"/>
     <use xlink:href="#DejaVuSans-Bold-20" transform="translate(879.394531 0)"/>
     <use xlink:href="#DejaVuSans-Bold-42" transform="translate(914.208984 0)"/>
     <use xlink:href="#DejaVuSans-Bold-49" transform="translate(990.429688 0)"/>
     <use xlink:href="#DejaVuSans-Bold-41" transform="translate(1027.636719 0)"/>
     <use xlink:href="#DejaVuSans-Bold-4e" transform="translate(1105.029297 0)"/>
    </g>
    <!-- (behaviors, business -->
    <g style="fill: #404040" transform="translate(378.9725 119.222625) scale(0.08 -0.08)">
     <defs>
      <path id="DejaVuSans-Bold-62" d="M 2400 722 
Q 2759 722 2948 984 
Q 3138 1247 3138 1747 
Q 3138 2247 2948 2509 
Q 2759 2772 2400 2772 
Q 2041 2772 1848 2508 
Q 1656 2244 1656 1747 
Q 1656 1250 1848 986 
Q 2041 722 2400 722 
z
M 1656 2988 
Q 1888 3294 2169 3439 
Q 2450 3584 2816 3584 
Q 3463 3584 3878 3070 
Q 4294 2556 4294 1747 
Q 4294 938 3878 423 
Q 3463 -91 2816 -91 
Q 2450 -91 2169 54 
Q 1888 200 1656 506 
L 1656 0 
L 538 0 
L 538 4863 
L 1656 4863 
L 1656 2988 
z
" transform="scale(0.015625)"/>
      <path id="DejaVuSans-Bold-75" d="M 500 1363 
L 500 3500 
L 1625 3500 
L 1625 3150 
Q 1625 2866 1622 2436 
Q 1619 2006 1619 1863 
Q 1619 1441 1641 1255 
Q 1663 1069 1716 984 
Q 1784 875 1895 815 
Q 2006 756 2150 756 
Q 2500 756 2700 1025 
Q 2900 1294 2900 1772 
L 2900 3500 
L 4019 3500 
L 4019 0 
L 2900 0 
L 2900 506 
Q 2647 200 2364 54 
Q 2081 -91 1741 -91 
Q 1134 -91 817 281 
Q 500 653 500 1363 
z
" transform="scale(0.015625)"/>
     </defs>
     <use xlink:href="#DejaVuSans-Bold-28"/>
     <use xlink:href="#DejaVuSans-Bold-62" transform="translate(45.703125 0)"/>
     <use xlink:href="#DejaVuSans-Bold-65" transform="translate(117.285156 0)"/>
     <use xlink:href="#DejaVuSans-Bold-68" transform="translate(185.107422 0)"/>
     <use xlink:href="#DejaVuSans-Bold-61" transform="translate(256.298828 0)"/>
     <use xlink:href="#DejaVuSans-Bold-76" transform="translate(323.779297 0)"/>
     <use xlink:href="#DejaVuSans-Bold-69" transform="translate(388.964844 0)"/>
     <use xlink:href="#DejaVuSans-Bold-6f" transform="translate(423.242188 0)"/>
     <use xlink:href="#DejaVuSans-Bold-72" transform="translate(491.943359 0)"/>
     <use xlink:href="#DejaVuSans-Bold-73" transform="translate(541.259766 0)"/>
     <use xlink:href="#DejaVuSans-Bold-2c" transform="translate(600.78125 0)"/>
     <use xlink:href="#DejaVuSans-Bold-20" transform="translate(638.769531 0)"/>
     <use xlink:href="#DejaVuSans-Bold-62" transform="translate(673.583984 0)"/>
     <use xlink:href="#DejaVuSans-Bold-75" transform="translate(745.166016 0)"/>
     <use xlink:href="#DejaVuSans-Bold-73" transform="translate(816.357422 0)"/>
     <use xlink:href="#DejaVuSans-Bold-69" transform="translate(875.878906 0)"/>
     <use xlink:href="#DejaVuSans-Bold-6e" transform="translate(910.15625 0)"/>
     <use xlink:href="#DejaVuSans-Bold-65" transform="translate(981.347656 0)"/>
     <use xlink:href="#DejaVuSans-Bold-73" transform="translate(1049.169922 0)"/>
     <use xlink:href="#DejaVuSans-Bold-73" transform="translate(1108.691406 0)"/>
    </g>
    <!-- objects) -->
    <g style="fill: #404040" transform="translate(407.5125 128.180875) scale(0.08 -0.08)">
     <defs>
      <path id="DejaVuSans-Bold-6a" d="M 538 3500 
L 1656 3500 
L 1656 63 
Q 1656 -641 1318 -1011 
Q 981 -1381 341 -1381 
L -213 -1381 
L -213 -647 
L -19 -647 
Q 300 -647 419 -503 
Q 538 -359 538 63 
L 538 3500 
z
M 538 4863 
L 1656 4863 
L 1656 3950 
L 538 3950 
L 538 4863 
z
" transform="scale(0.015625)"/>
     </defs>
     <use xlink:href="#DejaVuSans-Bold-6f"/>
     <use xlink:href="#DejaVuSans-Bold-62" transform="translate(68.701172 0)"/>
     <use xlink:href="#DejaVuSans-Bold-6a" transform="translate(140.283203 0)"/>
     <use xlink:href="#DejaVuSans-Bold-65" transform="translate(174.560547 0)"/>
     <use xlink:href="#DejaVuSans-Bold-63" transform="translate(242.382812 0)"/>
     <use xlink:href="#DejaVuSans-Bold-74" transform="translate(301.660156 0)"/>
     <use xlink:href="#DejaVuSans-Bold-73" transform="translate(349.462891 0)"/>
     <use xlink:href="#DejaVuSans-Bold-29" transform="translate(408.984375 0)"/>
    </g>
   </g>
   <g id="text_4">
    <!-- Figura 5 — Bases conceptuales: contrato OpenAPI, modelo S/E/C y referencia BIAN -->
    <g style="fill: #404040" transform="translate(25.673438 26.604) scale(0.1 -0.1)">
     <defs>
      <path id="DejaVuSans-Bold-46" d="M 588 4666 
L 3834 4666 
L 3834 3756 
L 1791 3756 
L 1791 2888 
L 3713 2888 
L 3713 1978 
L 1791 1978 
L 1791 0 
L 588 0 
L 588 4666 
z
" transform="scale(0.015625)"/>
      <path id="DejaVuSans-Bold-35" d="M 678 4666 
L 3669 4666 
L 3669 3781 
L 1638 3781 
L 1638 3059 
Q 1775 3097 1914 3117 
Q 2053 3138 2203 3138 
Q 3056 3138 3531 2711 
Q 4006 2284 4006 1522 
Q 4006 766 3489 337 
Q 2972 -91 2053 -91 
Q 1656 -91 1267 -14 
Q 878 63 494 219 
L 494 1166 
Q 875 947 1217 837 
Q 1559 728 1863 728 
Q 2300 728 2551 942 
Q 2803 1156 2803 1522 
Q 2803 1891 2551 2103 
Q 2300 2316 1863 2316 
Q 1603 2316 1309 2248 
Q 1016 2181 678 2041 
L 678 4666 
z
" transform="scale(0.015625)"/>
      <path id="DejaVuSans-Bold-2014" d="M 344 2156 
L 6056 2156 
L 6056 1350 
L 344 1350 
L 344 2156 
z
" transform="scale(0.015625)"/>
      <path id="DejaVuSans-Bold-3a" d="M 716 3500 
L 1844 3500 
L 1844 2291 
L 716 2291 
L 716 3500 
z
M 716 1209 
L 1844 1209 
L 1844 0 
L 716 0 
L 716 1209 
z
" transform="scale(0.015625)"/>
      <path id="DejaVuSans-Bold-2f" d="M 1644 4666 
L 2338 4666 
L 691 -594 
L 0 -594 
L 1644 4666 
z
" transform="scale(0.015625)"/>
      <path id="DejaVuSans-Bold-79" d="M 78 3500 
L 1197 3500 
L 2138 1125 
L 2938 3500 
L 4056 3500 
L 2584 -331 
Q 2363 -916 2067 -1148 
Q 1772 -1381 1288 -1381 
L 641 -1381 
L 641 -647 
L 991 -647 
Q 1275 -647 1404 -556 
Q 1534 -466 1606 -231 
L 1638 -134 
L 78 3500 
z
" transform="scale(0.015625)"/>
      <path id="DejaVuSans-Bold-66" d="M 2841 4863 
L 2841 4128 
L 2222 4128 
Q 1984 4128 1890 4042 
Q 1797 3956 1797 3744 
L 1797 3500 
L 2753 3500 
L 2753 2700 
L 1797 2700 
L 1797 0 
L 678 0 
L 678 2700 
L 122 2700 
L 122 3500 
L 678 3500 
L 678 3744 
Q 678 4316 997 4589 
Q 1316 4863 1984 4863 
L 2841 4863 
z
" transform="scale(0.015625)"/>
     </defs>
     <use xlink:href="#DejaVuSans-Bold-46"/>
     <use xlink:href="#DejaVuSans-Bold-69" transform="translate(68.310547 0)"/>
     <use xlink:href="#DejaVuSans-Bold-67" transform="translate(102.587891 0)"/>
     <use xlink:href="#DejaVuSans-Bold-75" transform="translate(174.169922 0)"/>
     <use xlink:href="#DejaVuSans-Bold-72" transform="translate(245.361328 0)"/>
     <use xlink:href="#DejaVuSans-Bold-61" transform="translate(294.677734 0)"/>
     <use xlink:href="#DejaVuSans-Bold-20" transform="translate(362.158203 0)"/>
     <use xlink:href="#DejaVuSans-Bold-35" transform="translate(396.972656 0)"/>
     <use xlink:href="#DejaVuSans-Bold-20" transform="translate(466.552734 0)"/>
     <use xlink:href="#DejaVuSans-Bold-2014" transform="translate(501.367188 0)"/>
     <use xlink:href="#DejaVuSans-Bold-20" transform="translate(601.367188 0)"/>
     <use xlink:href="#DejaVuSans-Bold-42" transform="translate(636.181641 0)"/>
     <use xlink:href="#DejaVuSans-Bold-61" transform="translate(712.402344 0)"/>
     <use xlink:href="#DejaVuSans-Bold-73" transform="translate(779.882812 0)"/>
     <use xlink:href="#DejaVuSans-Bold-65" transform="translate(839.404297 0)"/>
     <use xlink:href="#DejaVuSans-Bold-73" transform="translate(907.226562 0)"/>
     <use xlink:href="#DejaVuSans-Bold-20" transform="translate(966.748047 0)"/>
     <use xlink:href="#DejaVuSans-Bold-63" transform="translate(1001.5625 0)"/>
     <use xlink:href="#DejaVuSans-Bold-6f" transform="translate(1060.839844 0)"/>
     <use xlink:href="#DejaVuSans-Bold-6e" transform="translate(1129.541016 0)"/>
     <use xlink:href="#DejaVuSans-Bold-63" transform="translate(1200.732422 0)"/>
     <use xlink:href="#DejaVuSans-Bold-65" transform="translate(1260.009766 0)"/>
     <use xlink:href="#DejaVuSans-Bold-70" transform="translate(1327.832031 0)"/>
     <use xlink:href="#DejaVuSans-Bold-74" transform="translate(1399.414062 0)"/>
     <use xlink:href="#DejaVuSans-Bold-75" transform="translate(1447.216797 0)"/>
     <use xlink:href="#DejaVuSans-Bold-61" transform="translate(1518.408203 0)"/>
     <use xlink:href="#DejaVuSans-Bold-6c" transform="translate(1585.888672 0)"/>
     <use xlink:href="#DejaVuSans-Bold-65" transform="translate(1620.166016 0)"/>
     <use xlink:href="#DejaVuSans-Bold-73" transform="translate(1687.988281 0)"/>
     <use xlink:href="#DejaVuSans-Bold-3a" transform="translate(1747.509766 0)"/>
     <use xlink:href="#DejaVuSans-Bold-20" transform="translate(1787.5 0)"/>
     <use xlink:href="#DejaVuSans-Bold-63" transform="translate(1822.314453 0)"/>
     <use xlink:href="#DejaVuSans-Bold-6f" transform="translate(1881.591797 0)"/>
     <use xlink:href="#DejaVuSans-Bold-6e" transform="translate(1950.292969 0)"/>
     <use xlink:href="#DejaVuSans-Bold-74" transform="translate(2021.484375 0)"/>
     <use xlink:href="#DejaVuSans-Bold-72" transform="translate(2069.287109 0)"/>
     <use xlink:href="#DejaVuSans-Bold-61" transform="translate(2118.603516 0)"/>
     <use xlink:href="#DejaVuSans-Bold-74" transform="translate(2186.083984 0)"/>
     <use xlink:href="#DejaVuSans-Bold-6f" transform="translate(2233.886719 0)"/>
     <use xlink:href="#DejaVuSans-Bold-20" transform="translate(2302.587891 0)"/>
     <use xlink:href="#DejaVuSans-Bold-4f" transform="translate(2337.402344 0)"/>
     <use xlink:href="#DejaVuSans-Bold-70" transform="translate(2422.412109 0)"/>
     <use xlink:href="#DejaVuSans-Bold-65" transform="translate(2493.994141 0)"/>
     <use xlink:href="#DejaVuSans-Bold-6e" transform="translate(2561.816406 0)"/>
     <use xlink:href="#DejaVuSans-Bold-41" transform="translate(2633.007812 0)"/>
     <use xlink:href="#DejaVuSans-Bold-50" transform="translate(2710.400391 0)"/>
     <use xlink:href="#DejaVuSans-Bold-49" transform="translate(2783.691406 0)"/>
     <use xlink:href="#DejaVuSans-Bold-2c" transform="translate(2820.898438 0)"/>
     <use xlink:href="#DejaVuSans-Bold-20" transform="translate(2858.886719 0)"/>
     <use xlink:href="#DejaVuSans-Bold-6d" transform="translate(2893.701172 0)"/>
     <use xlink:href="#DejaVuSans-Bold-6f" transform="translate(2997.900391 0)"/>
     <use xlink:href="#DejaVuSans-Bold-64" transform="translate(3066.601562 0)"/>
     <use xlink:href="#DejaVuSans-Bold-65" transform="translate(3138.183594 0)"/>
     <use xlink:href="#DejaVuSans-Bold-6c" transform="translate(3206.005859 0)"/>
     <use xlink:href="#DejaVuSans-Bold-6f" transform="translate(3240.283203 0)"/>
     <use xlink:href="#DejaVuSans-Bold-20" transform="translate(3308.984375 0)"/>
     <use xlink:href="#DejaVuSans-Bold-53" transform="translate(3343.798828 0)"/>
     <use xlink:href="#DejaVuSans-Bold-2f" transform="translate(3415.820312 0)"/>
     <use xlink:href="#DejaVuSans-Bold-45" transform="translate(3452.34375 0)"/>
     <use xlink:href="#DejaVuSans-Bold-2f" transform="translate(3520.654297 0)"/>
     <use xlink:href="#DejaVuSans-Bold-43" transform="translate(3557.177734 0)"/>
     <use xlink:href="#DejaVuSans-Bold-20" transform="translate(3630.566406 0)"/>
     <use xlink:href="#DejaVuSans-Bold-79" transform="translate(3665.380859 0)"/>
     <use xlink:href="#DejaVuSans-Bold-20" transform="translate(3730.566406 0)"/>
     <use xlink:href="#DejaVuSans-Bold-72" transform="translate(3765.380859 0)"/>
     <use xlink:href="#DejaVuSans-Bold-65" transform="translate(3814.697266 0)"/>
     <use xlink:href="#DejaVuSans-Bold-66" transform="translate(3882.519531 0)"/>
     <use xlink:href="#DejaVuSans-Bold-65" transform="translate(3926.025391 0)"/>
     <use xlink:href="#DejaVuSans-Bold-72" transform="translate(3993.847656 0)"/>
     <use xlink:href="#DejaVuSans-Bold-65" transform="translate(4043.164062 0)"/>
     <use xlink:href="#DejaVuSans-Bold-6e" transform="translate(4110.986328 0)"/>
     <use xlink:href="#DejaVuSans-Bold-63" transform="translate(4182.177734 0)"/>
     <use xlink:href="#DejaVuSans-Bold-69" transform="translate(4241.455078 0)"/>
     <use xlink:href="#DejaVuSans-Bold-61" transform="translate(4275.732422 0)"/>
     <use xlink:href="#DejaVuSans-Bold-20" transform="translate(4343.212891 0)"/>
     <use xlink:href="#DejaVuSans-Bold-42" transform="translate(4378.027344 0)"/>
     <use xlink:href="#DejaVuSans-Bold-49" transform="translate(4454.248047 0)"/>
     <use xlink:href="#DejaVuSans-Bold-41" transform="translate(4491.455078 0)"/>
     <use xlink:href="#DejaVuSans-Bold-4e" transform="translate(4568.847656 0)"/>
    </g>
   </g>
  </g>
 </g>
 <defs>
  <clipPath id="p464eaebc76">
   <rect x="7.2" y="7.2" width="502.2" height="210.672"/>
  </clipPath>
 </defs>
</svg>
