<?xml version="1.0" encoding="utf-8" standalone="no"?>
<!DOCTYPE svg PUBLIC "-//W3C//DTD SVG 1.1//EN"
  "http://www.w3.org/Graphics/SVG/1.1/DTD/svg11.dtd">
<svg xmlns:xlink="http://www.w3.org/1999/xlink" width="628.2pt" height="247.248pt" viewBox="0 0 628.2 247.248" xmlns="http://www.w3.org/2000/svg" version="1.1">
 <metadata>
  <rdf:RDF xmlns:dc="http://purl.org/dc/elements/1.1/" xmlns:cc="http://creativecommons.org/ns#" xmlns:rdf="http://www.w3.org/1999/02/22-rdf-syntax-ns#">
   <cc:Work>
    <dc:type rdf:resource="http://purl.org/dc/dcmitype/StillImage"/>
    <dc:date>2026-06-24T23:18:18.458157</dc:date>
    <dc:format>image/svg+xml</dc:format>
    <dc:creator>
     <cc:Agent>
      <dc:title>Matplotlib v3.10.9, https://matplotlib.org/</dc:title>
     </cc:Agent>
    </dc:creator>
   </cc:Work>
  </rdf:RDF>
 </metadata>
 <defs>
  <style type="text/css">*{stroke-linejoin: round; stroke-linecap: butt}</style>
 </defs>
 <g id="figure_1">
  <g id="patch_1">
   <path d="M 0 247.248 
L 628.2 247.248 
L 628.2 0 
L 0 0 
z
" style="fill: #ffffff"/>
  </g>
  <g id="axes_1">
   <g id="patch_2">
    <path d="M 20.592 157.9968 
L 99.828 157.9968 
Q 103.176 157.9968 103.176 154.6704 
L 103.176 92.5776 
Q 103.176 89.2512 99.828 89.2512 
L 20.592 89.2512 
Q 17.244 89.2512 17.244 92.5776 
L 17.244 154.6704 
Q 17.244 157.9968 20.592 157.9968 
z
" clip-path="url(#p829e2c689f)" style="fill: #d6e4f0; stroke: #2f5496; stroke-width: 1.4; stroke-linejoin: miter"/>
   </g>
   <g id="patch_3">
    <path d="M 20.592 235.6128 
L 99.828 235.6128 
Q 103.176 235.6128 103.176 232.2864 
L 103.176 181.2816 
Q 103.176 177.9552 99.828 177.9552 
L 20.592 177.9552 
Q 17.244 177.9552 17.244 181.2816 
L 17.244 232.2864 
Q 17.244 235.6128 20.592 235.6128 
z
" clip-path="url(#p829e2c689f)" style="fill: #fce4d6; stroke: #c55a11; stroke-width: 1.4; stroke-linejoin: miter"/>
   </g>
   <g id="patch_4">
    <path d="M 106.846798 123.624 
Q 120.19341 123.624 132.086578 123.624 
" clip-path="url(#p829e2c689f)" style="fill: none; stroke: #2f5496; stroke-width: 1.3; stroke-linecap: round"/>
    <path d="M 127.686578 121.424 
L 132.086578 123.624 
L 127.686578 125.824 
z
" clip-path="url(#p829e2c689f)" style="fill: #2f5496; stroke: #2f5496; stroke-width: 1.3; stroke-linecap: round"/>
   </g>
   <g id="patch_5">
    <path d="M 105.585219 204.924608 
Q 120.194208 167.978003 134.268756 132.383017 
" clip-path="url(#p829e2c689f)" style="fill: none; stroke: #c55a11; stroke-width: 1.3; stroke-linecap: round"/>
    <path d="M 130.604975 135.665806 
L 134.268756 132.383017 
L 134.696719 137.283715 
z
" clip-path="url(#p829e2c689f)" style="fill: #c55a11; stroke: #c55a11; stroke-width: 1.3; stroke-linecap: round"/>
   </g>
   <g id="patch_6">
    <path d="M 137.772 163.5408 
L 233.748 163.5408 
Q 237.096 163.5408 237.096 160.2144 
L 237.096 87.0336 
Q 237.096 83.7072 233.748 83.7072 
L 137.772 83.7072 
Q 134.424 83.7072 134.424 87.0336 
L 134.424 160.2144 
Q 134.424 163.5408 137.772 163.5408 
z
" clip-path="url(#p829e2c689f)" style="fill: #e2efda; stroke: #548235; stroke-width: 1.4; stroke-linejoin: miter"/>
   </g>
   <g id="patch_7">
    <path d="M 239.936473 122.001473 
Q 252.719909 104.220126 264.654927 87.618901 
" clip-path="url(#p829e2c689f)" style="fill: none; stroke: #2f5496; stroke-width: 1.3; stroke-linecap: round"/>
    <path d="M 260.300233 89.90727 
L 264.654927 87.618901 
L 263.872806 92.475678 
z
" clip-path="url(#p829e2c689f)" style="fill: #2f5496; stroke: #2f5496; stroke-width: 1.3; stroke-linecap: round"/>
   </g>
   <g id="patch_8">
    <path d="M 239.936473 125.246527 
Q 252.719909 143.027874 264.654927 159.629099 
" clip-path="url(#p829e2c689f)" style="fill: none; stroke: #2f5496; stroke-width: 1.3; stroke-linecap: round"/>
    <path d="M 263.872806 154.772322 
L 264.654927 159.629099 
L 260.300233 157.34073 
z
" clip-path="url(#p829e2c689f)" style="fill: #2f5496; stroke: #2f5496; stroke-width: 1.3; stroke-linecap: round"/>
   </g>
   <g id="patch_9">
    <path d="M 268.902 113.6448 
L 353.718 113.6448 
Q 357.066 113.6448 357.066 110.3184 
L 357.066 59.3136 
Q 357.066 55.9872 353.718 55.9872 
L 268.902 55.9872 
Q 265.554 55.9872 265.554 59.3136 
L 265.554 110.3184 
Q 265.554 113.6448 268.902 113.6448 
z
" clip-path="url(#p829e2c689f)" style="fill: #d6e4f0; stroke: #2f5496; stroke-width: 1.4; stroke-linejoin: miter"/>
   </g>
   <g id="patch_10">
    <path d="M 268.902 191.2608 
L 353.718 191.2608 
Q 357.066 191.2608 357.066 187.9344 
L 357.066 136.9296 
Q 357.066 133.6032 353.718 133.6032 
L 268.902 133.6032 
Q 265.554 133.6032 265.554 136.9296 
L 265.554 187.9344 
Q 265.554 191.2608 268.902 191.2608 
z
" clip-path="url(#p829e2c689f)" style="fill: #e8d5f5; stroke: #7030a0; stroke-width: 1.4; stroke-linejoin: miter"/>
   </g>
   <g id="patch_11">
    <path d="M 359.906473 86.438527 
Q 372.689909 104.219874 384.624927 120.821099 
" clip-path="url(#p829e2c689f)" style="fill: none; stroke: #2f5496; stroke-width: 1.3; stroke-linecap: round"/>
    <path d="M 383.842806 115.964322 
L 384.624927 120.821099 
L 380.270233 118.53273 
z
" clip-path="url(#p829e2c689f)" style="fill: #2f5496; stroke: #2f5496; stroke-width: 1.3; stroke-linecap: round"/>
   </g>
   <g id="patch_12">
    <path d="M 359.906473 160.809473 
Q 372.689909 143.028126 384.624927 126.426901 
" clip-path="url(#p829e2c689f)" style="fill: none; stroke: #2f5496; stroke-width: 1.3; stroke-linecap: round"/>
    <path d="M 380.270233 128.71527 
L 384.624927 126.426901 
L 383.842806 131.283678 
z
" clip-path="url(#p829e2c689f)" style="fill: #2f5496; stroke: #2f5496; stroke-width: 1.3; stroke-linecap: round"/>
   </g>
   <g id="patch_13">
    <path d="M 388.872 163.5408 
L 490.428 163.5408 
Q 493.776 163.5408 493.776 160.2144 
L 493.776 87.0336 
Q 493.776 83.7072 490.428 83.7072 
L 388.872 83.7072 
Q 385.524 83.7072 385.524 87.0336 
L 385.524 160.2144 
Q 385.524 163.5408 388.872 163.5408 
z
" clip-path="url(#p829e2c689f)" style="fill: #fce4d6; stroke: #c55a11; stroke-width: 1.4; stroke-linejoin: miter"/>
   </g>
   <g id="patch_14">
    <path d="M 497.449182 123.624 
Q 509.398906 123.624 519.895186 123.624 
" clip-path="url(#p829e2c689f)" style="fill: none; stroke: #2f5496; stroke-width: 1.3; stroke-linecap: round"/>
    <path d="M 515.495186 121.424 
L 519.895186 123.624 
L 515.495186 125.824 
z
" clip-path="url(#p829e2c689f)" style="fill: #2f5496; stroke: #2f5496; stroke-width: 1.3; stroke-linecap: round"/>
   </g>
   <g id="patch_15">
    <path d="M 525.582 157.9968 
L 604.818 157.9968 
Q 608.166 157.9968 608.166 154.6704 
L 608.166 92.5776 
Q 608.166 89.2512 604.818 89.2512 
L 525.582 89.2512 
Q 522.234 89.2512 522.234 92.5776 
L 522.234 154.6704 
Q 522.234 157.9968 525.582 157.9968 
z
" clip-path="url(#p829e2c689f)" style="fill: #e2efda; stroke: #548235; stroke-width: 1.4; stroke-linejoin: miter"/>
   </g>
   <g id="text_1">
    <!-- Contrato -->
    <g style="fill: #404040" transform="translate(39.199063 116.451328) scale(0.085 -0.085)">
     <defs>
      <path id="DejaVuSans-Bold-43" d="M 4288 256 
Q 3956 84 3597 -3 
Q 3238 -91 2847 -91 
Q 1681 -91 1000 561 
Q 319 1213 319 2328 
Q 319 3447 1000 4098 
Q 1681 4750 2847 4750 
Q 3238 4750 3597 4662 
Q 3956 4575 4288 4403 
L 4288 3438 
Q 3953 3666 3628 3772 
Q 3303 3878 2944 3878 
Q 2300 3878 1931 3465 
Q 1563 3053 1563 2328 
Q 1563 1606 1931 1193 
Q 2300 781 2944 781 
Q 3303 781 3628 887 
Q 3953 994 4288 1222 
L 4288 256 
z
" transform="scale(0.015625)"/>
      <path id="DejaVuSans-Bold-6f" d="M 2203 2784 
Q 1831 2784 1636 2517 
Q 1441 2250 1441 1747 
Q 1441 1244 1636 976 
Q 1831 709 2203 709 
Q 2569 709 2762 976 
Q 2956 1244 2956 1747 
Q 2956 2250 2762 2517 
Q 2569 2784 2203 2784 
z
M 2203 3584 
Q 3106 3584 3614 3096 
Q 4122 2609 4122 1747 
Q 4122 884 3614 396 
Q 3106 -91 2203 -91 
Q 1297 -91 786 396 
Q 275 884 275 1747 
Q 275 2609 786 3096 
Q 1297 3584 2203 3584 
z
" transform="scale(0.015625)"/>
      <path id="DejaVuSans-Bold-6e" d="M 4056 2131 
L 4056 0 
L 2931 0 
L 2931 347 
L 2931 1631 
Q 2931 2084 2911 2256 
Q 2891 2428 2841 2509 
Q 2775 2619 2662 2680 
Q 2550 2741 2406 2741 
Q 2056 2741 1856 2470 
Q 1656 2200 1656 1722 
L 1656 0 
L 538 0 
L 538 3500 
L 1656 3500 
L 1656 2988 
Q 1909 3294 2193 3439 
Q 2478 3584 2822 3584 
Q 3428 3584 3742 3212 
Q 4056 2841 4056 2131 
z
" transform="scale(0.015625)"/>
      <path id="DejaVuSans-Bold-74" d="M 1759 4494 
L 1759 3500 
L 2913 3500 
L 2913 2700 
L 1759 2700 
L 1759 1216 
Q 1759 972 1856 886 
Q 1953 800 2241 800 
L 2816 800 
L 2816 0 
L 1856 0 
Q 1194 0 917 276 
Q 641 553 641 1216 
L 641 2700 
L 84 2700 
L 84 3500 
L 641 3500 
L 641 4494 
L 1759 4494 
z
" transform="scale(0.015625)"/>
      <path id="DejaVuSans-Bold-72" d="M 3138 2547 
Q 2991 2616 2845 2648 
Q 2700 2681 2553 2681 
Q 2122 2681 1889 2404 
Q 1656 2128 1656 1613 
L 1656 0 
L 538 0 
L 538 3500 
L 1656 3500 
L 1656 2925 
Q 1872 3269 2151 3426 
Q 2431 3584 2822 3584 
Q 2878 3584 2943 3579 
Q 3009 3575 3134 3559 
L 3138 2547 
z
" transform="scale(0.015625)"/>
      <path id="DejaVuSans-Bold-61" d="M 2106 1575 
Q 1756 1575 1579 1456 
Q 1403 1338 1403 1106 
Q 1403 894 1545 773 
Q 1688 653 1941 653 
Q 2256 653 2472 879 
Q 2688 1106 2688 1447 
L 2688 1575 
L 2106 1575 
z
M 3816 1997 
L 3816 0 
L 2688 0 
L 2688 519 
Q 2463 200 2181 54 
Q 1900 -91 1497 -91 
Q 953 -91 614 226 
Q 275 544 275 1050 
Q 275 1666 698 1953 
Q 1122 2241 2028 2241 
L 2688 2241 
L 2688 2328 
Q 2688 2594 2478 2717 
Q 2269 2841 1825 2841 
Q 1466 2841 1156 2769 
Q 847 2697 581 2553 
L 581 3406 
Q 941 3494 1303 3539 
Q 1666 3584 2028 3584 
Q 2975 3584 3395 3211 
Q 3816 2838 3816 1997 
z
" transform="scale(0.015625)"/>
     </defs>
     <use xlink:href="#DejaVuSans-Bold-43"/>
     <use xlink:href="#DejaVuSans-Bold-6f" transform="translate(73.388672 0)"/>
     <use xlink:href="#DejaVuSans-Bold-6e" transform="translate(142.089844 0)"/>
     <use xlink:href="#DejaVuSans-Bold-74" transform="translate(213.28125 0)"/>
     <use xlink:href="#DejaVuSans-Bold-72" transform="translate(261.083984 0)"/>
     <use xlink:href="#DejaVuSans-Bold-61" transform="translate(310.400391 0)"/>
     <use xlink:href="#DejaVuSans-Bold-74" transform="translate(377.880859 0)"/>
     <use xlink:href="#DejaVuSans-Bold-6f" transform="translate(425.683594 0)"/>
    </g>
    <!-- OpenAPI -->
    <g style="fill: #404040" transform="translate(39.66125 125.969469) scale(0.085 -0.085)">
     <defs>
      <path id="DejaVuSans-Bold-4f" d="M 2719 3878 
Q 2169 3878 1866 3472 
Q 1563 3066 1563 2328 
Q 1563 1594 1866 1187 
Q 2169 781 2719 781 
Q 3272 781 3575 1187 
Q 3878 1594 3878 2328 
Q 3878 3066 3575 3472 
Q 3272 3878 2719 3878 
z
M 2719 4750 
Q 3844 4750 4481 4106 
Q 5119 3463 5119 2328 
Q 5119 1197 4481 553 
Q 3844 -91 2719 -91 
Q 1597 -91 958 553 
Q 319 1197 319 2328 
Q 319 3463 958 4106 
Q 1597 4750 2719 4750 
z
" transform="scale(0.015625)"/>
      <path id="DejaVuSans-Bold-70" d="M 1656 506 
L 1656 -1331 
L 538 -1331 
L 538 3500 
L 1656 3500 
L 1656 2988 
Q 1888 3294 2169 3439 
Q 2450 3584 2816 3584 
Q 3463 3584 3878 3070 
Q 4294 2556 4294 1747 
Q 4294 938 3878 423 
Q 3463 -91 2816 -91 
Q 2450 -91 2169 54 
Q 1888 200 1656 506 
z
M 2400 2772 
Q 2041 2772 1848 2508 
Q 1656 2244 1656 1747 
Q 1656 1250 1848 986 
Q 2041 722 2400 722 
Q 2759 722 2948 984 
Q 3138 1247 3138 1747 
Q 3138 2247 2948 2509 
Q 2759 2772 2400 2772 
z
" transform="scale(0.015625)"/>
      <path id="DejaVuSans-Bold-65" d="M 4031 1759 
L 4031 1441 
L 1416 1441 
Q 1456 1047 1700 850 
Q 1944 653 2381 653 
Q 2734 653 3104 758 
Q 3475 863 3866 1075 
L 3866 213 
Q 3469 63 3072 -14 
Q 2675 -91 2278 -91 
Q 1328 -91 801 392 
Q 275 875 275 1747 
Q 275 2603 792 3093 
Q 1309 3584 2216 3584 
Q 3041 3584 3536 3087 
Q 4031 2591 4031 1759 
z
M 2881 2131 
Q 2881 2450 2695 2645 
Q 2509 2841 2209 2841 
Q 1884 2841 1681 2658 
Q 1478 2475 1428 2131 
L 2881 2131 
z
" transform="scale(0.015625)"/>
      <path id="DejaVuSans-Bold-41" d="M 3419 850 
L 1538 850 
L 1241 0 
L 31 0 
L 1759 4666 
L 3194 4666 
L 4922 0 
L 3713 0 
L 3419 850 
z
M 1838 1716 
L 3116 1716 
L 2478 3572 
L 1838 1716 
z
" transform="scale(0.015625)"/>
      <path id="DejaVuSans-Bold-50" d="M 588 4666 
L 2584 4666 
Q 3475 4666 3951 4270 
Q 4428 3875 4428 3144 
Q 4428 2409 3951 2014 
Q 3475 1619 2584 1619 
L 1791 1619 
L 1791 0 
L 588 0 
L 588 4666 
z
M 1791 3794 
L 1791 2491 
L 2456 2491 
Q 2806 2491 2997 2661 
Q 3188 2831 3188 3144 
Q 3188 3456 2997 3625 
Q 2806 3794 2456 3794 
L 1791 3794 
z
" transform="scale(0.015625)"/>
      <path id="DejaVuSans-Bold-49" d="M 588 4666 
L 1791 4666 
L 1791 0 
L 588 0 
L 588 4666 
z
" transform="scale(0.015625)"/>
     </defs>
     <use xlink:href="#DejaVuSans-Bold-4f"/>
     <use xlink:href="#DejaVuSans-Bold-70" transform="translate(85.009766 0)"/>
     <use xlink:href="#DejaVuSans-Bold-65" transform="translate(156.591797 0)"/>
     <use xlink:href="#DejaVuSans-Bold-6e" transform="translate(224.414062 0)"/>
     <use xlink:href="#DejaVuSans-Bold-41" transform="translate(295.605469 0)"/>
     <use xlink:href="#DejaVuSans-Bold-50" transform="translate(372.998047 0)"/>
     <use xlink:href="#DejaVuSans-Bold-49" transform="translate(446.289062 0)"/>
    </g>
    <!-- bancario -->
    <g style="fill: #404040" transform="translate(39.414219 135.487609) scale(0.085 -0.085)">
     <defs>
      <path id="DejaVuSans-Bold-62" d="M 2400 722 
Q 2759 722 2948 984 
Q 3138 1247 3138 1747 
Q 3138 2247 2948 2509 
Q 2759 2772 2400 2772 
Q 2041 2772 1848 2508 
Q 1656 2244 1656 1747 
Q 1656 1250 1848 986 
Q 2041 722 2400 722 
z
M 1656 2988 
Q 1888 3294 2169 3439 
Q 2450 3584 2816 3584 
Q 3463 3584 3878 3070 
Q 4294 2556 4294 1747 
Q 4294 938 3878 423 
Q 3463 -91 2816 -91 
Q 2450 -91 2169 54 
Q 1888 200 1656 506 
L 1656 0 
L 538 0 
L 538 4863 
L 1656 4863 
L 1656 2988 
z
" transform="scale(0.015625)"/>
      <path id="DejaVuSans-Bold-63" d="M 3366 3391 
L 3366 2478 
Q 3138 2634 2908 2709 
Q 2678 2784 2431 2784 
Q 1963 2784 1702 2511 
Q 1441 2238 1441 1747 
Q 1441 1256 1702 982 
Q 1963 709 2431 709 
Q 2694 709 2930 787 
Q 3166 866 3366 1019 
L 3366 103 
Q 3103 6 2833 -42 
Q 2563 -91 2291 -91 
Q 1344 -91 809 395 
Q 275 881 275 1747 
Q 275 2613 809 3098 
Q 1344 3584 2291 3584 
Q 2566 3584 2833 3536 
Q 3100 3488 3366 3391 
z
" transform="scale(0.015625)"/>
      <path id="DejaVuSans-Bold-69" d="M 538 3500 
L 1656 3500 
L 1656 0 
L 538 0 
L 538 3500 
z
M 538 4863 
L 1656 4863 
L 1656 3950 
L 538 3950 
L 538 4863 
z
" transform="scale(0.015625)"/>
     </defs>
     <use xlink:href="#DejaVuSans-Bold-62"/>
     <use xlink:href="#DejaVuSans-Bold-61" transform="translate(71.582031 0)"/>
     <use xlink:href="#DejaVuSans-Bold-6e" transform="translate(139.0625 0)"/>
     <use xlink:href="#DejaVuSans-Bold-63" transform="translate(210.253906 0)"/>
     <use xlink:href="#DejaVuSans-Bold-61" transform="translate(269.53125 0)"/>
     <use xlink:href="#DejaVuSans-Bold-72" transform="translate(337.011719 0)"/>
     <use xlink:href="#DejaVuSans-Bold-69" transform="translate(386.328125 0)"/>
     <use xlink:href="#DejaVuSans-Bold-6f" transform="translate(420.605469 0)"/>
    </g>
   </g>
   <g id="text_2">
    <!-- Service -->
    <g style="fill: #404040" transform="translate(42.541289 199.611328) scale(0.085 -0.085)">
     <defs>
      <path id="DejaVuSans-Bold-53" d="M 3834 4519 
L 3834 3531 
Q 3450 3703 3084 3790 
Q 2719 3878 2394 3878 
Q 1963 3878 1756 3759 
Q 1550 3641 1550 3391 
Q 1550 3203 1689 3098 
Q 1828 2994 2194 2919 
L 2706 2816 
Q 3484 2659 3812 2340 
Q 4141 2022 4141 1434 
Q 4141 663 3683 286 
Q 3225 -91 2284 -91 
Q 1841 -91 1394 -6 
Q 947 78 500 244 
L 500 1259 
Q 947 1022 1364 901 
Q 1781 781 2169 781 
Q 2563 781 2772 912 
Q 2981 1044 2981 1288 
Q 2981 1506 2839 1625 
Q 2697 1744 2272 1838 
L 1806 1941 
Q 1106 2091 782 2419 
Q 459 2747 459 3303 
Q 459 4000 909 4375 
Q 1359 4750 2203 4750 
Q 2588 4750 2994 4692 
Q 3400 4634 3834 4519 
z
" transform="scale(0.015625)"/>
      <path id="DejaVuSans-Bold-76" d="M 97 3500 
L 1216 3500 
L 2088 1081 
L 2956 3500 
L 4078 3500 
L 2700 0 
L 1472 0 
L 97 3500 
z
" transform="scale(0.015625)"/>
     </defs>
     <use xlink:href="#DejaVuSans-Bold-53"/>
     <use xlink:href="#DejaVuSans-Bold-65" transform="translate(72.021484 0)"/>
     <use xlink:href="#DejaVuSans-Bold-72" transform="translate(139.84375 0)"/>
     <use xlink:href="#DejaVuSans-Bold-76" transform="translate(189.160156 0)"/>
     <use xlink:href="#DejaVuSans-Bold-69" transform="translate(254.345703 0)"/>
     <use xlink:href="#DejaVuSans-Bold-63" transform="translate(288.623047 0)"/>
     <use xlink:href="#DejaVuSans-Bold-65" transform="translate(347.900391 0)"/>
    </g>
    <!-- Domain -->
    <g style="fill: #404040" transform="translate(41.982813 209.129469) scale(0.085 -0.085)">
     <defs>
      <path id="DejaVuSans-Bold-44" d="M 1791 3756 
L 1791 909 
L 2222 909 
Q 2959 909 3348 1275 
Q 3738 1641 3738 2338 
Q 3738 3031 3350 3393 
Q 2963 3756 2222 3756 
L 1791 3756 
z
M 588 4666 
L 1856 4666 
Q 2919 4666 3439 4514 
Q 3959 4363 4331 4000 
Q 4659 3684 4818 3271 
Q 4978 2859 4978 2338 
Q 4978 1809 4818 1395 
Q 4659 981 4331 666 
Q 3956 303 3431 151 
Q 2906 0 1856 0 
L 588 0 
L 588 4666 
z
" transform="scale(0.015625)"/>
      <path id="DejaVuSans-Bold-6d" d="M 3781 2919 
Q 3994 3244 4286 3414 
Q 4578 3584 4928 3584 
Q 5531 3584 5847 3212 
Q 6163 2841 6163 2131 
L 6163 0 
L 5038 0 
L 5038 1825 
Q 5041 1866 5042 1909 
Q 5044 1953 5044 2034 
Q 5044 2406 4934 2573 
Q 4825 2741 4581 2741 
Q 4263 2741 4089 2478 
Q 3916 2216 3909 1719 
L 3909 0 
L 2784 0 
L 2784 1825 
Q 2784 2406 2684 2573 
Q 2584 2741 2328 2741 
Q 2006 2741 1831 2477 
Q 1656 2213 1656 1722 
L 1656 0 
L 531 0 
L 531 3500 
L 1656 3500 
L 1656 2988 
Q 1863 3284 2130 3434 
Q 2397 3584 2719 3584 
Q 3081 3584 3359 3409 
Q 3638 3234 3781 2919 
z
" transform="scale(0.015625)"/>
     </defs>
     <use xlink:href="#DejaVuSans-Bold-44"/>
     <use xlink:href="#DejaVuSans-Bold-6f" transform="translate(83.007812 0)"/>
     <use xlink:href="#DejaVuSans-Bold-6d" transform="translate(151.708984 0)"/>
     <use xlink:href="#DejaVuSans-Bold-61" transform="translate(255.908203 0)"/>
     <use xlink:href="#DejaVuSans-Bold-69" transform="translate(323.388672 0)"/>
     <use xlink:href="#DejaVuSans-Bold-6e" transform="translate(357.666016 0)"/>
    </g>
    <!-- BIAN -->
    <g style="fill: #404040" transform="translate(48.54375 218.647609) scale(0.085 -0.085)">
     <defs>
      <path id="DejaVuSans-Bold-42" d="M 2456 2859 
Q 2741 2859 2887 2984 
Q 3034 3109 3034 3353 
Q 3034 3594 2887 3720 
Q 2741 3847 2456 3847 
L 1791 3847 
L 1791 2859 
L 2456 2859 
z
M 2497 819 
Q 2859 819 3042 972 
Q 3225 1125 3225 1434 
Q 3225 1738 3044 1889 
Q 2863 2041 2497 2041 
L 1791 2041 
L 1791 819 
L 2497 819 
z
M 3616 2497 
Q 4003 2384 4215 2081 
Q 4428 1778 4428 1338 
Q 4428 663 3972 331 
Q 3516 0 2584 0 
L 588 0 
L 588 4666 
L 2394 4666 
Q 3366 4666 3802 4372 
Q 4238 4078 4238 3431 
Q 4238 3091 4078 2852 
Q 3919 2613 3616 2497 
z
" transform="scale(0.015625)"/>
      <path id="DejaVuSans-Bold-4e" d="M 588 4666 
L 1931 4666 
L 3628 1466 
L 3628 4666 
L 4769 4666 
L 4769 0 
L 3425 0 
L 1728 3200 
L 1728 0 
L 588 0 
L 588 4666 
z
" transform="scale(0.015625)"/>
     </defs>
     <use xlink:href="#DejaVuSans-Bold-42"/>
     <use xlink:href="#DejaVuSans-Bold-49" transform="translate(76.220703 0)"/>
     <use xlink:href="#DejaVuSans-Bold-41" transform="translate(113.427734 0)"/>
     <use xlink:href="#DejaVuSans-Bold-4e" transform="translate(190.820312 0)"/>
    </g>
   </g>
   <g id="text_3">
    <!-- OE1 -->
    <g style="fill: #404040" transform="translate(176.286484 111.692258) scale(0.085 -0.085)">
     <defs>
      <path id="DejaVuSans-Bold-45" d="M 588 4666 
L 3834 4666 
L 3834 3756 
L 1791 3756 
L 1791 2888 
L 3713 2888 
L 3713 1978 
L 1791 1978 
L 1791 909 
L 3903 909 
L 3903 0 
L 588 0 
L 588 4666 
z
" transform="scale(0.015625)"/>
      <path id="DejaVuSans-Bold-31" d="M 750 831 
L 1813 831 
L 1813 3847 
L 722 3622 
L 722 4441 
L 1806 4666 
L 2950 4666 
L 2950 831 
L 4013 831 
L 4013 0 
L 750 0 
L 750 831 
z
" transform="scale(0.015625)"/>
     </defs>
     <use xlink:href="#DejaVuSans-Bold-4f"/>
     <use xlink:href="#DejaVuSans-Bold-45" transform="translate(85.009766 0)"/>
     <use xlink:href="#DejaVuSans-Bold-31" transform="translate(153.320312 0)"/>
    </g>
    <!-- Normalización -->
    <g style="fill: #404040" transform="translate(151.713516 121.210398) scale(0.085 -0.085)">
     <defs>
      <path id="DejaVuSans-Bold-6c" d="M 538 4863 
L 1656 4863 
L 1656 0 
L 538 0 
L 538 4863 
z
" transform="scale(0.015625)"/>
      <path id="DejaVuSans-Bold-7a" d="M 366 3500 
L 3419 3500 
L 3419 2719 
L 1575 800 
L 3419 800 
L 3419 0 
L 288 0 
L 288 781 
L 2131 2700 
L 366 2700 
L 366 3500 
z
" transform="scale(0.015625)"/>
      <path id="DejaVuSans-Bold-f3" d="M 2203 2784 
Q 1831 2784 1636 2517 
Q 1441 2250 1441 1747 
Q 1441 1244 1636 976 
Q 1831 709 2203 709 
Q 2569 709 2762 976 
Q 2956 1244 2956 1747 
Q 2956 2250 2762 2517 
Q 2569 2784 2203 2784 
z
M 2203 3584 
Q 3106 3584 3614 3096 
Q 4122 2609 4122 1747 
Q 4122 884 3614 396 
Q 3106 -91 2203 -91 
Q 1297 -91 786 396 
Q 275 884 275 1747 
Q 275 2609 786 3096 
Q 1297 3584 2203 3584 
z
M 2694 5119 
L 3578 5119 
L 2425 3944 
L 1813 3944 
L 2694 5119 
z
" transform="scale(0.015625)"/>
     </defs>
     <use xlink:href="#DejaVuSans-Bold-4e"/>
     <use xlink:href="#DejaVuSans-Bold-6f" transform="translate(83.691406 0)"/>
     <use xlink:href="#DejaVuSans-Bold-72" transform="translate(152.392578 0)"/>
     <use xlink:href="#DejaVuSans-Bold-6d" transform="translate(201.708984 0)"/>
     <use xlink:href="#DejaVuSans-Bold-61" transform="translate(305.908203 0)"/>
     <use xlink:href="#DejaVuSans-Bold-6c" transform="translate(373.388672 0)"/>
     <use xlink:href="#DejaVuSans-Bold-69" transform="translate(407.666016 0)"/>
     <use xlink:href="#DejaVuSans-Bold-7a" transform="translate(441.943359 0)"/>
     <use xlink:href="#DejaVuSans-Bold-61" transform="translate(500.146484 0)"/>
     <use xlink:href="#DejaVuSans-Bold-63" transform="translate(567.626953 0)"/>
     <use xlink:href="#DejaVuSans-Bold-69" transform="translate(626.904297 0)"/>
     <use xlink:href="#DejaVuSans-Bold-f3" transform="translate(661.181641 0)"/>
     <use xlink:href="#DejaVuSans-Bold-6e" transform="translate(729.882812 0)"/>
    </g>
    <!-- (representaciones -->
    <g style="fill: #404040" transform="translate(142.147695 130.728539) scale(0.085 -0.085)">
     <defs>
      <path id="DejaVuSans-Bold-28" d="M 2413 -844 
L 1484 -844 
Q 1006 -72 778 623 
Q 550 1319 550 2003 
Q 550 2688 779 3389 
Q 1009 4091 1484 4856 
L 2413 4856 
Q 2013 4116 1813 3408 
Q 1613 2700 1613 2009 
Q 1613 1319 1811 609 
Q 2009 -100 2413 -844 
z
" transform="scale(0.015625)"/>
      <path id="DejaVuSans-Bold-73" d="M 3272 3391 
L 3272 2541 
Q 2913 2691 2578 2766 
Q 2244 2841 1947 2841 
Q 1628 2841 1473 2761 
Q 1319 2681 1319 2516 
Q 1319 2381 1436 2309 
Q 1553 2238 1856 2203 
L 2053 2175 
Q 2913 2066 3209 1816 
Q 3506 1566 3506 1031 
Q 3506 472 3093 190 
Q 2681 -91 1863 -91 
Q 1516 -91 1145 -36 
Q 775 19 384 128 
L 384 978 
Q 719 816 1070 734 
Q 1422 653 1784 653 
Q 2113 653 2278 743 
Q 2444 834 2444 1013 
Q 2444 1163 2330 1236 
Q 2216 1309 1875 1350 
L 1678 1375 
Q 931 1469 631 1722 
Q 331 1975 331 2491 
Q 331 3047 712 3315 
Q 1094 3584 1881 3584 
Q 2191 3584 2531 3537 
Q 2872 3491 3272 3391 
z
" transform="scale(0.015625)"/>
     </defs>
     <use xlink:href="#DejaVuSans-Bold-28"/>
     <use xlink:href="#DejaVuSans-Bold-72" transform="translate(45.703125 0)"/>
     <use xlink:href="#DejaVuSans-Bold-65" transform="translate(95.019531 0)"/>
     <use xlink:href="#DejaVuSans-Bold-70" transform="translate(162.841797 0)"/>
     <use xlink:href="#DejaVuSans-Bold-72" transform="translate(234.423828 0)"/>
     <use xlink:href="#DejaVuSans-Bold-65" transform="translate(283.740234 0)"/>
     <use xlink:href="#DejaVuSans-Bold-73" transform="translate(351.5625 0)"/>
     <use xlink:href="#DejaVuSans-Bold-65" transform="translate(411.083984 0)"/>
     <use xlink:href="#DejaVuSans-Bold-6e" transform="translate(478.90625 0)"/>
     <use xlink:href="#DejaVuSans-Bold-74" transform="translate(550.097656 0)"/>
     <use xlink:href="#DejaVuSans-Bold-61" transform="translate(597.900391 0)"/>
     <use xlink:href="#DejaVuSans-Bold-63" transform="translate(665.380859 0)"/>
     <use xlink:href="#DejaVuSans-Bold-69" transform="translate(724.658203 0)"/>
     <use xlink:href="#DejaVuSans-Bold-6f" transform="translate(758.935547 0)"/>
     <use xlink:href="#DejaVuSans-Bold-6e" transform="translate(827.636719 0)"/>
     <use xlink:href="#DejaVuSans-Bold-65" transform="translate(898.828125 0)"/>
     <use xlink:href="#DejaVuSans-Bold-73" transform="translate(966.650391 0)"/>
    </g>
    <!-- comparables) -->
    <g style="fill: #404040" transform="translate(153.164492 140.24668) scale(0.085 -0.085)">
     <defs>
      <path id="DejaVuSans-Bold-29" d="M 513 -844 
Q 913 -100 1113 609 
Q 1313 1319 1313 2009 
Q 1313 2700 1113 3408 
Q 913 4116 513 4856 
L 1441 4856 
Q 1916 4091 2145 3389 
Q 2375 2688 2375 2003 
Q 2375 1319 2147 623 
Q 1919 -72 1441 -844 
L 513 -844 
z
" transform="scale(0.015625)"/>
     </defs>
     <use xlink:href="#DejaVuSans-Bold-63"/>
     <use xlink:href="#DejaVuSans-Bold-6f" transform="translate(59.277344 0)"/>
     <use xlink:href="#DejaVuSans-Bold-6d" transform="translate(127.978516 0)"/>
     <use xlink:href="#DejaVuSans-Bold-70" transform="translate(232.177734 0)"/>
     <use xlink:href="#DejaVuSans-Bold-61" transform="translate(303.759766 0)"/>
     <use xlink:href="#DejaVuSans-Bold-72" transform="translate(371.240234 0)"/>
     <use xlink:href="#DejaVuSans-Bold-61" transform="translate(420.556641 0)"/>
     <use xlink:href="#DejaVuSans-Bold-62" transform="translate(488.037109 0)"/>
     <use xlink:href="#DejaVuSans-Bold-6c" transform="translate(559.619141 0)"/>
     <use xlink:href="#DejaVuSans-Bold-65" transform="translate(593.896484 0)"/>
     <use xlink:href="#DejaVuSans-Bold-73" transform="translate(661.71875 0)"/>
     <use xlink:href="#DejaVuSans-Bold-29" transform="translate(721.240234 0)"/>
    </g>
   </g>
   <g id="text_4">
    <!-- OE2 -->
    <g style="fill: #404040" transform="translate(303.08875 82.544375) scale(0.08 -0.08)">
     <defs>
      <path id="DejaVuSans-4f" d="M 2522 4238 
Q 1834 4238 1429 3725 
Q 1025 3213 1025 2328 
Q 1025 1447 1429 934 
Q 1834 422 2522 422 
Q 3209 422 3611 934 
Q 4013 1447 4013 2328 
Q 4013 3213 3611 3725 
Q 3209 4238 2522 4238 
z
M 2522 4750 
Q 3503 4750 4090 4092 
Q 4678 3434 4678 2328 
Q 4678 1225 4090 567 
Q 3503 -91 2522 -91 
Q 1538 -91 948 565 
Q 359 1222 359 2328 
Q 359 3434 948 4092 
Q 1538 4750 2522 4750 
z
" transform="scale(0.015625)"/>
      <path id="DejaVuSans-45" d="M 628 4666 
L 3578 4666 
L 3578 4134 
L 1259 4134 
L 1259 2753 
L 3481 2753 
L 3481 2222 
L 1259 2222 
L 1259 531 
L 3634 531 
L 3634 0 
L 628 0 
L 628 4666 
z
" transform="scale(0.015625)"/>
      <path id="DejaVuSans-32" d="M 1228 531 
L 3431 531 
L 3431 0 
L 469 0 
L 469 531 
Q 828 903 1448 1529 
Q 2069 2156 2228 2338 
Q 2531 2678 2651 2914 
Q 2772 3150 2772 3378 
Q 2772 3750 2511 3984 
Q 2250 4219 1831 4219 
Q 1534 4219 1204 4116 
Q 875 4013 500 3803 
L 500 4441 
Q 881 4594 1212 4672 
Q 1544 4750 1819 4750 
Q 2544 4750 2975 4387 
Q 3406 4025 3406 3419 
Q 3406 3131 3298 2873 
Q 3191 2616 2906 2266 
Q 2828 2175 2409 1742 
Q 1991 1309 1228 531 
z
" transform="scale(0.015625)"/>
     </defs>
     <use xlink:href="#DejaVuSans-4f"/>
     <use xlink:href="#DejaVuSans-45" transform="translate(78.710938 0)"/>
     <use xlink:href="#DejaVuSans-32" transform="translate(141.894531 0)"/>
    </g>
    <!-- StructuralScore (E) -->
    <g style="fill: #404040" transform="translate(273.391875 91.502625) scale(0.08 -0.08)">
     <defs>
      <path id="DejaVuSans-53" d="M 3425 4513 
L 3425 3897 
Q 3066 4069 2747 4153 
Q 2428 4238 2131 4238 
Q 1616 4238 1336 4038 
Q 1056 3838 1056 3469 
Q 1056 3159 1242 3001 
Q 1428 2844 1947 2747 
L 2328 2669 
Q 3034 2534 3370 2195 
Q 3706 1856 3706 1288 
Q 3706 609 3251 259 
Q 2797 -91 1919 -91 
Q 1588 -91 1214 -16 
Q 841 59 441 206 
L 441 856 
Q 825 641 1194 531 
Q 1563 422 1919 422 
Q 2459 422 2753 634 
Q 3047 847 3047 1241 
Q 3047 1584 2836 1778 
Q 2625 1972 2144 2069 
L 1759 2144 
Q 1053 2284 737 2584 
Q 422 2884 422 3419 
Q 422 4038 858 4394 
Q 1294 4750 2059 4750 
Q 2388 4750 2728 4690 
Q 3069 4631 3425 4513 
z
" transform="scale(0.015625)"/>
      <path id="DejaVuSans-74" d="M 1172 4494 
L 1172 3500 
L 2356 3500 
L 2356 3053 
L 1172 3053 
L 1172 1153 
Q 1172 725 1289 603 
Q 1406 481 1766 481 
L 2356 481 
L 2356 0 
L 1766 0 
Q 1100 0 847 248 
Q 594 497 594 1153 
L 594 3053 
L 172 3053 
L 172 3500 
L 594 3500 
L 594 4494 
L 1172 4494 
z
" transform="scale(0.015625)"/>
      <path id="DejaVuSans-72" d="M 2631 2963 
Q 2534 3019 2420 3045 
Q 2306 3072 2169 3072 
Q 1681 3072 1420 2755 
Q 1159 2438 1159 1844 
L 1159 0 
L 581 0 
L 581 3500 
L 1159 3500 
L 1159 2956 
Q 1341 3275 1631 3429 
Q 1922 3584 2338 3584 
Q 2397 3584 2469 3576 
Q 2541 3569 2628 3553 
L 2631 2963 
z
" transform="scale(0.015625)"/>
      <path id="DejaVuSans-75" d="M 544 1381 
L 544 3500 
L 1119 3500 
L 1119 1403 
Q 1119 906 1312 657 
Q 1506 409 1894 409 
Q 2359 409 2629 706 
Q 2900 1003 2900 1516 
L 2900 3500 
L 3475 3500 
L 3475 0 
L 2900 0 
L 2900 538 
Q 2691 219 2414 64 
Q 2138 -91 1772 -91 
Q 1169 -91 856 284 
Q 544 659 544 1381 
z
M 1991 3584 
L 1991 3584 
z
" transform="scale(0.015625)"/>
      <path id="DejaVuSans-63" d="M 3122 3366 
L 3122 2828 
Q 2878 2963 2633 3030 
Q 2388 3097 2138 3097 
Q 1578 3097 1268 2742 
Q 959 2388 959 1747 
Q 959 1106 1268 751 
Q 1578 397 2138 397 
Q 2388 397 2633 464 
Q 2878 531 3122 666 
L 3122 134 
Q 2881 22 2623 -34 
Q 2366 -91 2075 -91 
Q 1284 -91 818 406 
Q 353 903 353 1747 
Q 353 2603 823 3093 
Q 1294 3584 2113 3584 
Q 2378 3584 2631 3529 
Q 2884 3475 3122 3366 
z
" transform="scale(0.015625)"/>
      <path id="DejaVuSans-61" d="M 2194 1759 
Q 1497 1759 1228 1600 
Q 959 1441 959 1056 
Q 959 750 1161 570 
Q 1363 391 1709 391 
Q 2188 391 2477 730 
Q 2766 1069 2766 1631 
L 2766 1759 
L 2194 1759 
z
M 3341 1997 
L 3341 0 
L 2766 0 
L 2766 531 
Q 2569 213 2275 61 
Q 1981 -91 1556 -91 
Q 1019 -91 701 211 
Q 384 513 384 1019 
Q 384 1609 779 1909 
Q 1175 2209 1959 2209 
L 2766 2209 
L 2766 2266 
Q 2766 2663 2505 2880 
Q 2244 3097 1772 3097 
Q 1472 3097 1187 3025 
Q 903 2953 641 2809 
L 641 3341 
Q 956 3463 1253 3523 
Q 1550 3584 1831 3584 
Q 2591 3584 2966 3190 
Q 3341 2797 3341 1997 
z
" transform="scale(0.015625)"/>
      <path id="DejaVuSans-6c" d="M 603 4863 
L 1178 4863 
L 1178 0 
L 603 0 
L 603 4863 
z
" transform="scale(0.015625)"/>
      <path id="DejaVuSans-6f" d="M 1959 3097 
Q 1497 3097 1228 2736 
Q 959 2375 959 1747 
Q 959 1119 1226 758 
Q 1494 397 1959 397 
Q 2419 397 2687 759 
Q 2956 1122 2956 1747 
Q 2956 2369 2687 2733 
Q 2419 3097 1959 3097 
z
M 1959 3584 
Q 2709 3584 3137 3096 
Q 3566 2609 3566 1747 
Q 3566 888 3137 398 
Q 2709 -91 1959 -91 
Q 1206 -91 779 398 
Q 353 888 353 1747 
Q 353 2609 779 3096 
Q 1206 3584 1959 3584 
z
" transform="scale(0.015625)"/>
      <path id="DejaVuSans-65" d="M 3597 1894 
L 3597 1613 
L 953 1613 
Q 991 1019 1311 708 
Q 1631 397 2203 397 
Q 2534 397 2845 478 
Q 3156 559 3463 722 
L 3463 178 
Q 3153 47 2828 -22 
Q 2503 -91 2169 -91 
Q 1331 -91 842 396 
Q 353 884 353 1716 
Q 353 2575 817 3079 
Q 1281 3584 2069 3584 
Q 2775 3584 3186 3129 
Q 3597 2675 3597 1894 
z
M 3022 2063 
Q 3016 2534 2758 2815 
Q 2500 3097 2075 3097 
Q 1594 3097 1305 2825 
Q 1016 2553 972 2059 
L 3022 2063 
z
" transform="scale(0.015625)"/>
      <path id="DejaVuSans-20" transform="scale(0.015625)"/>
      <path id="DejaVuSans-28" d="M 1984 4856 
Q 1566 4138 1362 3434 
Q 1159 2731 1159 2009 
Q 1159 1288 1364 580 
Q 1569 -128 1984 -844 
L 1484 -844 
Q 1016 -109 783 600 
Q 550 1309 550 2009 
Q 550 2706 781 3412 
Q 1013 4119 1484 4856 
L 1984 4856 
z
" transform="scale(0.015625)"/>
      <path id="DejaVuSans-29" d="M 513 4856 
L 1013 4856 
Q 1481 4119 1714 3412 
Q 1947 2706 1947 2009 
Q 1947 1309 1714 600 
Q 1481 -109 1013 -844 
L 513 -844 
Q 928 -128 1133 580 
Q 1338 1288 1338 2009 
Q 1338 2731 1133 3434 
Q 928 4138 513 4856 
z
" transform="scale(0.015625)"/>
     </defs>
     <use xlink:href="#DejaVuSans-53"/>
     <use xlink:href="#DejaVuSans-74" transform="translate(63.476562 0)"/>
     <use xlink:href="#DejaVuSans-72" transform="translate(102.685547 0)"/>
     <use xlink:href="#DejaVuSans-75" transform="translate(143.798828 0)"/>
     <use xlink:href="#DejaVuSans-63" transform="translate(207.177734 0)"/>
     <use xlink:href="#DejaVuSans-74" transform="translate(262.158203 0)"/>
     <use xlink:href="#DejaVuSans-75" transform="translate(301.367188 0)"/>
     <use xlink:href="#DejaVuSans-72" transform="translate(364.746094 0)"/>
     <use xlink:href="#DejaVuSans-61" transform="translate(405.859375 0)"/>
     <use xlink:href="#DejaVuSans-6c" transform="translate(467.138672 0)"/>
     <use xlink:href="#DejaVuSans-53" transform="translate(494.921875 0)"/>
     <use xlink:href="#DejaVuSans-63" transform="translate(558.398438 0)"/>
     <use xlink:href="#DejaVuSans-6f" transform="translate(613.378906 0)"/>
     <use xlink:href="#DejaVuSans-72" transform="translate(674.560547 0)"/>
     <use xlink:href="#DejaVuSans-65" transform="translate(713.423828 0)"/>
     <use xlink:href="#DejaVuSans-20" transform="translate(774.947266 0)"/>
     <use xlink:href="#DejaVuSans-28" transform="translate(806.734375 0)"/>
     <use xlink:href="#DejaVuSans-45" transform="translate(845.748047 0)"/>
     <use xlink:href="#DejaVuSans-29" transform="translate(908.931641 0)"/>
    </g>
   </g>
   <g id="text_5">
    <!-- OE3 -->
    <g style="fill: #404040" transform="translate(303.08875 160.160375) scale(0.08 -0.08)">
     <defs>
      <path id="DejaVuSans-33" d="M 2597 2516 
Q 3050 2419 3304 2112 
Q 3559 1806 3559 1356 
Q 3559 666 3084 287 
Q 2609 -91 1734 -91 
Q 1441 -91 1130 -33 
Q 819 25 488 141 
L 488 750 
Q 750 597 1062 519 
Q 1375 441 1716 441 
Q 2309 441 2620 675 
Q 2931 909 2931 1356 
Q 2931 1769 2642 2001 
Q 2353 2234 1838 2234 
L 1294 2234 
L 1294 2753 
L 1863 2753 
Q 2328 2753 2575 2939 
Q 2822 3125 2822 3475 
Q 2822 3834 2567 4026 
Q 2313 4219 1838 4219 
Q 1578 4219 1281 4162 
Q 984 4106 628 3988 
L 628 4550 
Q 988 4650 1302 4700 
Q 1616 4750 1894 4750 
Q 2613 4750 3031 4423 
Q 3450 4097 3450 3541 
Q 3450 3153 3228 2886 
Q 3006 2619 2597 2516 
z
" transform="scale(0.015625)"/>
     </defs>
     <use xlink:href="#DejaVuSans-4f"/>
     <use xlink:href="#DejaVuSans-45" transform="translate(78.710938 0)"/>
     <use xlink:href="#DejaVuSans-33" transform="translate(141.894531 0)"/>
    </g>
    <!-- SemanticScore (S) -->
    <g style="fill: #404040" transform="translate(274.414375 169.118625) scale(0.08 -0.08)">
     <defs>
      <path id="DejaVuSans-6d" d="M 3328 2828 
Q 3544 3216 3844 3400 
Q 4144 3584 4550 3584 
Q 5097 3584 5394 3201 
Q 5691 2819 5691 2113 
L 5691 0 
L 5113 0 
L 5113 2094 
Q 5113 2597 4934 2840 
Q 4756 3084 4391 3084 
Q 3944 3084 3684 2787 
Q 3425 2491 3425 1978 
L 3425 0 
L 2847 0 
L 2847 2094 
Q 2847 2600 2669 2842 
Q 2491 3084 2119 3084 
Q 1678 3084 1418 2786 
Q 1159 2488 1159 1978 
L 1159 0 
L 581 0 
L 581 3500 
L 1159 3500 
L 1159 2956 
Q 1356 3278 1631 3431 
Q 1906 3584 2284 3584 
Q 2666 3584 2933 3390 
Q 3200 3197 3328 2828 
z
" transform="scale(0.015625)"/>
      <path id="DejaVuSans-6e" d="M 3513 2113 
L 3513 0 
L 2938 0 
L 2938 2094 
Q 2938 2591 2744 2837 
Q 2550 3084 2163 3084 
Q 1697 3084 1428 2787 
Q 1159 2491 1159 1978 
L 1159 0 
L 581 0 
L 581 3500 
L 1159 3500 
L 1159 2956 
Q 1366 3272 1645 3428 
Q 1925 3584 2291 3584 
Q 2894 3584 3203 3211 
Q 3513 2838 3513 2113 
z
" transform="scale(0.015625)"/>
      <path id="DejaVuSans-69" d="M 603 3500 
L 1178 3500 
L 1178 0 
L 603 0 
L 603 3500 
z
M 603 4863 
L 1178 4863 
L 1178 4134 
L 603 4134 
L 603 4863 
z
" transform="scale(0.015625)"/>
     </defs>
     <use xlink:href="#DejaVuSans-53"/>
     <use xlink:href="#DejaVuSans-65" transform="translate(63.476562 0)"/>
     <use xlink:href="#DejaVuSans-6d" transform="translate(125 0)"/>
     <use xlink:href="#DejaVuSans-61" transform="translate(222.412109 0)"/>
     <use xlink:href="#DejaVuSans-6e" transform="translate(283.691406 0)"/>
     <use xlink:href="#DejaVuSans-74" transform="translate(347.070312 0)"/>
     <use xlink:href="#DejaVuSans-69" transform="translate(386.279297 0)"/>
     <use xlink:href="#DejaVuSans-63" transform="translate(414.0625 0)"/>
     <use xlink:href="#DejaVuSans-53" transform="translate(469.042969 0)"/>
     <use xlink:href="#DejaVuSans-63" transform="translate(532.519531 0)"/>
     <use xlink:href="#DejaVuSans-6f" transform="translate(587.5 0)"/>
     <use xlink:href="#DejaVuSans-72" transform="translate(648.681641 0)"/>
     <use xlink:href="#DejaVuSans-65" transform="translate(687.544922 0)"/>
     <use xlink:href="#DejaVuSans-20" transform="translate(749.068359 0)"/>
     <use xlink:href="#DejaVuSans-28" transform="translate(780.855469 0)"/>
     <use xlink:href="#DejaVuSans-53" transform="translate(819.869141 0)"/>
     <use xlink:href="#DejaVuSans-29" transform="translate(883.345703 0)"/>
    </g>
   </g>
   <g id="text_6">
    <!-- OE4 -->
    <g style="fill: #404040" transform="translate(430.73375 112.331625) scale(0.08 -0.08)">
     <defs>
      <path id="DejaVuSans-Bold-34" d="M 2356 3675 
L 1038 1722 
L 2356 1722 
L 2356 3675 
z
M 2156 4666 
L 3494 4666 
L 3494 1722 
L 4159 1722 
L 4159 850 
L 3494 850 
L 3494 0 
L 2356 0 
L 2356 850 
L 288 850 
L 288 1881 
L 2156 4666 
z
" transform="scale(0.015625)"/>
     </defs>
     <use xlink:href="#DejaVuSans-Bold-4f"/>
     <use xlink:href="#DejaVuSans-Bold-45" transform="translate(85.009766 0)"/>
     <use xlink:href="#DejaVuSans-Bold-34" transform="translate(153.320312 0)"/>
    </g>
    <!-- CoverageScore (C) -->
    <g style="fill: #404040" transform="translate(397.7275 121.289875) scale(0.08 -0.08)">
     <defs>
      <path id="DejaVuSans-Bold-67" d="M 2919 594 
Q 2688 288 2409 144 
Q 2131 0 1766 0 
Q 1125 0 706 504 
Q 288 1009 288 1791 
Q 288 2575 706 3076 
Q 1125 3578 1766 3578 
Q 2131 3578 2409 3434 
Q 2688 3291 2919 2981 
L 2919 3500 
L 4044 3500 
L 4044 353 
Q 4044 -491 3511 -936 
Q 2978 -1381 1966 -1381 
Q 1638 -1381 1331 -1331 
Q 1025 -1281 716 -1178 
L 716 -306 
Q 1009 -475 1290 -558 
Q 1572 -641 1856 -641 
Q 2406 -641 2662 -400 
Q 2919 -159 2919 353 
L 2919 594 
z
M 2181 2772 
Q 1834 2772 1640 2515 
Q 1447 2259 1447 1791 
Q 1447 1309 1634 1061 
Q 1822 813 2181 813 
Q 2531 813 2725 1069 
Q 2919 1325 2919 1791 
Q 2919 2259 2725 2515 
Q 2531 2772 2181 2772 
z
" transform="scale(0.015625)"/>
      <path id="DejaVuSans-Bold-20" transform="scale(0.015625)"/>
     </defs>
     <use xlink:href="#DejaVuSans-Bold-43"/>
     <use xlink:href="#DejaVuSans-Bold-6f" transform="translate(73.388672 0)"/>
     <use xlink:href="#DejaVuSans-Bold-76" transform="translate(142.089844 0)"/>
     <use xlink:href="#DejaVuSans-Bold-65" transform="translate(207.275391 0)"/>
     <use xlink:href="#DejaVuSans-Bold-72" transform="translate(275.097656 0)"/>
     <use xlink:href="#DejaVuSans-Bold-61" transform="translate(324.414062 0)"/>
     <use xlink:href="#DejaVuSans-Bold-67" transform="translate(391.894531 0)"/>
     <use xlink:href="#DejaVuSans-Bold-65" transform="translate(463.476562 0)"/>
     <use xlink:href="#DejaVuSans-Bold-53" transform="translate(531.298828 0)"/>
     <use xlink:href="#DejaVuSans-Bold-63" transform="translate(603.320312 0)"/>
     <use xlink:href="#DejaVuSans-Bold-6f" transform="translate(662.597656 0)"/>
     <use xlink:href="#DejaVuSans-Bold-72" transform="translate(731.298828 0)"/>
     <use xlink:href="#DejaVuSans-Bold-65" transform="translate(780.615234 0)"/>
     <use xlink:href="#DejaVuSans-Bold-20" transform="translate(848.4375 0)"/>
     <use xlink:href="#DejaVuSans-Bold-28" transform="translate(883.251953 0)"/>
     <use xlink:href="#DejaVuSans-Bold-43" transform="translate(928.955078 0)"/>
     <use xlink:href="#DejaVuSans-Bold-29" transform="translate(1002.34375 0)"/>
    </g>
    <!-- + AlignmentScore -->
    <g style="fill: #404040" transform="translate(399.030625 130.310625) scale(0.08 -0.08)">
     <defs>
      <path id="DejaVuSans-Bold-2b" d="M 3053 4013 
L 3053 2375 
L 4684 2375 
L 4684 1638 
L 3053 1638 
L 3053 0 
L 2309 0 
L 2309 1638 
L 678 1638 
L 678 2375 
L 2309 2375 
L 2309 4013 
L 3053 4013 
z
" transform="scale(0.015625)"/>
     </defs>
     <use xlink:href="#DejaVuSans-Bold-2b"/>
     <use xlink:href="#DejaVuSans-Bold-20" transform="translate(83.789062 0)"/>
     <use xlink:href="#DejaVuSans-Bold-41" transform="translate(118.603516 0)"/>
     <use xlink:href="#DejaVuSans-Bold-6c" transform="translate(195.996094 0)"/>
     <use xlink:href="#DejaVuSans-Bold-69" transform="translate(230.273438 0)"/>
     <use xlink:href="#DejaVuSans-Bold-67" transform="translate(264.550781 0)"/>
     <use xlink:href="#DejaVuSans-Bold-6e" transform="translate(336.132812 0)"/>
     <use xlink:href="#DejaVuSans-Bold-6d" transform="translate(407.324219 0)"/>
     <use xlink:href="#DejaVuSans-Bold-65" transform="translate(511.523438 0)"/>
     <use xlink:href="#DejaVuSans-Bold-6e" transform="translate(579.345703 0)"/>
     <use xlink:href="#DejaVuSans-Bold-74" transform="translate(650.537109 0)"/>
     <use xlink:href="#DejaVuSans-Bold-53" transform="translate(698.339844 0)"/>
     <use xlink:href="#DejaVuSans-Bold-63" transform="translate(770.361328 0)"/>
     <use xlink:href="#DejaVuSans-Bold-6f" transform="translate(829.638672 0)"/>
     <use xlink:href="#DejaVuSans-Bold-72" transform="translate(898.339844 0)"/>
     <use xlink:href="#DejaVuSans-Bold-65" transform="translate(947.65625 0)"/>
    </g>
    <!-- + clasificación -->
    <g style="fill: #404040" transform="translate(407.191875 139.331375) scale(0.08 -0.08)">
     <defs>
      <path id="DejaVuSans-Bold-66" d="M 2841 4863 
L 2841 4128 
L 2222 4128 
Q 1984 4128 1890 4042 
Q 1797 3956 1797 3744 
L 1797 3500 
L 2753 3500 
L 2753 2700 
L 1797 2700 
L 1797 0 
L 678 0 
L 678 2700 
L 122 2700 
L 122 3500 
L 678 3500 
L 678 3744 
Q 678 4316 997 4589 
Q 1316 4863 1984 4863 
L 2841 4863 
z
" transform="scale(0.015625)"/>
     </defs>
     <use xlink:href="#DejaVuSans-Bold-2b"/>
     <use xlink:href="#DejaVuSans-Bold-20" transform="translate(83.789062 0)"/>
     <use xlink:href="#DejaVuSans-Bold-63" transform="translate(118.603516 0)"/>
     <use xlink:href="#DejaVuSans-Bold-6c" transform="translate(177.880859 0)"/>
     <use xlink:href="#DejaVuSans-Bold-61" transform="translate(212.158203 0)"/>
     <use xlink:href="#DejaVuSans-Bold-73" transform="translate(279.638672 0)"/>
     <use xlink:href="#DejaVuSans-Bold-69" transform="translate(339.160156 0)"/>
     <use xlink:href="#DejaVuSans-Bold-66" transform="translate(373.4375 0)"/>
     <use xlink:href="#DejaVuSans-Bold-69" transform="translate(416.943359 0)"/>
     <use xlink:href="#DejaVuSans-Bold-63" transform="translate(451.220703 0)"/>
     <use xlink:href="#DejaVuSans-Bold-61" transform="translate(510.498047 0)"/>
     <use xlink:href="#DejaVuSans-Bold-63" transform="translate(577.978516 0)"/>
     <use xlink:href="#DejaVuSans-Bold-69" transform="translate(637.255859 0)"/>
     <use xlink:href="#DejaVuSans-Bold-f3" transform="translate(671.533203 0)"/>
     <use xlink:href="#DejaVuSans-Bold-6e" transform="translate(740.234375 0)"/>
    </g>
   </g>
   <g id="text_7">
    <!-- Producto: -->
    <g style="fill: #404040" transform="translate(543.20625 116.61875) scale(0.08 -0.08)">
     <defs>
      <path id="DejaVuSans-Bold-64" d="M 2919 2988 
L 2919 4863 
L 4044 4863 
L 4044 0 
L 2919 0 
L 2919 506 
Q 2688 197 2409 53 
Q 2131 -91 1766 -91 
Q 1119 -91 703 423 
Q 288 938 288 1747 
Q 288 2556 703 3070 
Q 1119 3584 1766 3584 
Q 2128 3584 2408 3439 
Q 2688 3294 2919 2988 
z
M 2181 722 
Q 2541 722 2730 984 
Q 2919 1247 2919 1747 
Q 2919 2247 2730 2509 
Q 2541 2772 2181 2772 
Q 1825 2772 1636 2509 
Q 1447 2247 1447 1747 
Q 1447 1247 1636 984 
Q 1825 722 2181 722 
z
" transform="scale(0.015625)"/>
      <path id="DejaVuSans-Bold-75" d="M 500 1363 
L 500 3500 
L 1625 3500 
L 1625 3150 
Q 1625 2866 1622 2436 
Q 1619 2006 1619 1863 
Q 1619 1441 1641 1255 
Q 1663 1069 1716 984 
Q 1784 875 1895 815 
Q 2006 756 2150 756 
Q 2500 756 2700 1025 
Q 2900 1294 2900 1772 
L 2900 3500 
L 4019 3500 
L 4019 0 
L 2900 0 
L 2900 506 
Q 2647 200 2364 54 
Q 2081 -91 1741 -91 
Q 1134 -91 817 281 
Q 500 653 500 1363 
z
" transform="scale(0.015625)"/>
      <path id="DejaVuSans-Bold-3a" d="M 716 3500 
L 1844 3500 
L 1844 2291 
L 716 2291 
L 716 3500 
z
M 716 1209 
L 1844 1209 
L 1844 0 
L 716 0 
L 716 1209 
z
" transform="scale(0.015625)"/>
     </defs>
     <use xlink:href="#DejaVuSans-Bold-50"/>
     <use xlink:href="#DejaVuSans-Bold-72" transform="translate(73.291016 0)"/>
     <use xlink:href="#DejaVuSans-Bold-6f" transform="translate(122.607422 0)"/>
     <use xlink:href="#DejaVuSans-Bold-64" transform="translate(191.308594 0)"/>
     <use xlink:href="#DejaVuSans-Bold-75" transform="translate(262.890625 0)"/>
     <use xlink:href="#DejaVuSans-Bold-63" transform="translate(334.082031 0)"/>
     <use xlink:href="#DejaVuSans-Bold-74" transform="translate(393.359375 0)"/>
     <use xlink:href="#DejaVuSans-Bold-6f" transform="translate(441.162109 0)"/>
     <use xlink:href="#DejaVuSans-Bold-3a" transform="translate(509.863281 0)"/>
    </g>
    <!-- AlignmentScore -->
    <g style="fill: #404040" transform="translate(529.325 125.577) scale(0.08 -0.08)">
     <use xlink:href="#DejaVuSans-Bold-41"/>
     <use xlink:href="#DejaVuSans-Bold-6c" transform="translate(77.392578 0)"/>
     <use xlink:href="#DejaVuSans-Bold-69" transform="translate(111.669922 0)"/>
     <use xlink:href="#DejaVuSans-Bold-67" transform="translate(145.947266 0)"/>
     <use xlink:href="#DejaVuSans-Bold-6e" transform="translate(217.529297 0)"/>
     <use xlink:href="#DejaVuSans-Bold-6d" transform="translate(288.720703 0)"/>
     <use xlink:href="#DejaVuSans-Bold-65" transform="translate(392.919922 0)"/>
     <use xlink:href="#DejaVuSans-Bold-6e" transform="translate(460.742188 0)"/>
     <use xlink:href="#DejaVuSans-Bold-74" transform="translate(531.933594 0)"/>
     <use xlink:href="#DejaVuSans-Bold-53" transform="translate(579.736328 0)"/>
     <use xlink:href="#DejaVuSans-Bold-63" transform="translate(651.757812 0)"/>
     <use xlink:href="#DejaVuSans-Bold-6f" transform="translate(711.035156 0)"/>
     <use xlink:href="#DejaVuSans-Bold-72" transform="translate(779.736328 0)"/>
     <use xlink:href="#DejaVuSans-Bold-65" transform="translate(829.052734 0)"/>
    </g>
    <!-- + tipologías -->
    <g style="fill: #404040" transform="translate(538.1275 134.98175) scale(0.08 -0.08)">
     <defs>
      <path id="DejaVuSans-Bold-ed" d="M 538 3500 
L 1656 3500 
L 1656 0 
L 538 0 
L 538 3500 
z
M 1590 5119 
L 2474 5119 
L 1321 3944 
L 709 3944 
L 1590 5119 
z
" transform="scale(0.015625)"/>
     </defs>
     <use xlink:href="#DejaVuSans-Bold-2b"/>
     <use xlink:href="#DejaVuSans-Bold-20" transform="translate(83.789062 0)"/>
     <use xlink:href="#DejaVuSans-Bold-74" transform="translate(118.603516 0)"/>
     <use xlink:href="#DejaVuSans-Bold-69" transform="translate(166.40625 0)"/>
     <use xlink:href="#DejaVuSans-Bold-70" transform="translate(200.683594 0)"/>
     <use xlink:href="#DejaVuSans-Bold-6f" transform="translate(272.265625 0)"/>
     <use xlink:href="#DejaVuSans-Bold-6c" transform="translate(340.966797 0)"/>
     <use xlink:href="#DejaVuSans-Bold-6f" transform="translate(375.244141 0)"/>
     <use xlink:href="#DejaVuSans-Bold-67" transform="translate(443.945312 0)"/>
     <use xlink:href="#DejaVuSans-Bold-ed" transform="translate(515.527344 0)"/>
     <use xlink:href="#DejaVuSans-Bold-61" transform="translate(549.804688 0)"/>
     <use xlink:href="#DejaVuSans-Bold-73" transform="translate(617.285156 0)"/>
    </g>
   </g>
   <g id="text_8">
    <!-- Figura 4 — Cadena de objetivos: transformaciones entrada $\rightarrow$ salida -->
    <g style="fill: #404040" transform="translate(121.55 26.604) scale(0.1 -0.1)">
     <defs>
      <path id="DejaVuSans-Bold-46" d="M 588 4666 
L 3834 4666 
L 3834 3756 
L 1791 3756 
L 1791 2888 
L 3713 2888 
L 3713 1978 
L 1791 1978 
L 1791 0 
L 588 0 
L 588 4666 
z
" transform="scale(0.015625)"/>
      <path id="DejaVuSansDisplay-2014" d="M 313 1978 
L 6088 1978 
L 6088 1528 
L 313 1528 
L 313 1978 
z
" transform="scale(0.015625)"/>
      <path id="DejaVuSans-Bold-6a" d="M 538 3500 
L 1656 3500 
L 1656 63 
Q 1656 -641 1318 -1011 
Q 981 -1381 341 -1381 
L -213 -1381 
L -213 -647 
L -19 -647 
Q 300 -647 419 -503 
Q 538 -359 538 63 
L 538 3500 
z
M 538 4863 
L 1656 4863 
L 1656 3950 
L 538 3950 
L 538 4863 
z
" transform="scale(0.015625)"/>
      <path id="DejaVuSans-2192" d="M 5050 2147 
L 5050 1866 
L 3822 638 
L 3447 1013 
L 4175 1741 
L 366 1741 
L 366 2272 
L 4175 2272 
L 3447 3000 
L 3822 3375 
L 5050 2147 
z
" transform="scale(0.015625)"/>
     </defs>
     <use xlink:href="#DejaVuSans-Bold-46" transform="translate(0 0.015625)"/>
     <use xlink:href="#DejaVuSans-Bold-69" transform="translate(68.310547 0.015625)"/>
     <use xlink:href="#DejaVuSans-Bold-67" transform="translate(102.587891 0.015625)"/>
     <use xlink:href="#DejaVuSans-Bold-75" transform="translate(174.169922 0.015625)"/>
     <use xlink:href="#DejaVuSans-Bold-72" transform="translate(245.361328 0.015625)"/>
     <use xlink:href="#DejaVuSans-Bold-61" transform="translate(294.677734 0.015625)"/>
     <use xlink:href="#DejaVuSans-Bold-20" transform="translate(362.158203 0.015625)"/>
     <use xlink:href="#DejaVuSans-Bold-34" transform="translate(396.972656 0.015625)"/>
     <use xlink:href="#DejaVuSans-Bold-20" transform="translate(466.552734 0.015625)"/>
     <use xlink:href="#DejaVuSansDisplay-2014" transform="translate(501.367188 0.015625)"/>
     <use xlink:href="#DejaVuSans-Bold-20" transform="translate(601.367188 0.015625)"/>
     <use xlink:href="#DejaVuSans-Bold-43" transform="translate(636.181641 0.015625)"/>
     <use xlink:href="#DejaVuSans-Bold-61" transform="translate(709.570312 0.015625)"/>
     <use xlink:href="#DejaVuSans-Bold-64" transform="translate(777.050781 0.015625)"/>
     <use xlink:href="#DejaVuSans-Bold-65" transform="translate(848.632812 0.015625)"/>
     <use xlink:href="#DejaVuSans-Bold-6e" transform="translate(916.455078 0.015625)"/>
     <use xlink:href="#DejaVuSans-Bold-61" transform="translate(987.646484 0.015625)"/>
     <use xlink:href="#DejaVuSans-Bold-20" transform="translate(1055.126953 0.015625)"/>
     <use xlink:href="#DejaVuSans-Bold-64" transform="translate(1089.941406 0.015625)"/>
     <use xlink:href="#DejaVuSans-Bold-65" transform="translate(1161.523438 0.015625)"/>
     <use xlink:href="#DejaVuSans-Bold-20" transform="translate(1229.345703 0.015625)"/>
     <use xlink:href="#DejaVuSans-Bold-6f" transform="translate(1264.160156 0.015625)"/>
     <use xlink:href="#DejaVuSans-Bold-62" transform="translate(1332.861328 0.015625)"/>
     <use xlink:href="#DejaVuSans-Bold-6a" transform="translate(1404.443359 0.015625)"/>
     <use xlink:href="#DejaVuSans-Bold-65" transform="translate(1438.720703 0.015625)"/>
     <use xlink:href="#DejaVuSans-Bold-74" transform="translate(1506.542969 0.015625)"/>
     <use xlink:href="#DejaVuSans-Bold-69" transform="translate(1554.345703 0.015625)"/>
     <use xlink:href="#DejaVuSans-Bold-76" transform="translate(1588.623047 0.015625)"/>
     <use xlink:href="#DejaVuSans-Bold-6f" transform="translate(1653.808594 0.015625)"/>
     <use xlink:href="#DejaVuSans-Bold-73" transform="translate(1722.509766 0.015625)"/>
     <use xlink:href="#DejaVuSans-Bold-3a" transform="translate(1782.03125 0.015625)"/>
     <use xlink:href="#DejaVuSans-Bold-20" transform="translate(1822.021484 0.015625)"/>
     <use xlink:href="#DejaVuSans-Bold-74" transform="translate(1856.835938 0.015625)"/>
     <use xlink:href="#DejaVuSans-Bold-72" transform="translate(1904.638672 0.015625)"/>
     <use xlink:href="#DejaVuSans-Bold-61" transform="translate(1953.955078 0.015625)"/>
     <use xlink:href="#DejaVuSans-Bold-6e" transform="translate(2021.435547 0.015625)"/>
     <use xlink:href="#DejaVuSans-Bold-73" transform="translate(2092.626953 0.015625)"/>
     <use xlink:href="#DejaVuSans-Bold-66" transform="translate(2152.148438 0.015625)"/>
     <use xlink:href="#DejaVuSans-Bold-6f" transform="translate(2195.654297 0.015625)"/>
     <use xlink:href="#DejaVuSans-Bold-72" transform="translate(2264.355469 0.015625)"/>
     <use xlink:href="#DejaVuSans-Bold-6d" transform="translate(2313.671875 0.015625)"/>
     <use xlink:href="#DejaVuSans-Bold-61" transform="translate(2417.871094 0.015625)"/>
     <use xlink:href="#DejaVuSans-Bold-63" transform="translate(2485.351562 0.015625)"/>
     <use xlink:href="#DejaVuSans-Bold-69" transform="translate(2544.628906 0.015625)"/>
     <use xlink:href="#DejaVuSans-Bold-6f" transform="translate(2578.90625 0.015625)"/>
     <use xlink:href="#DejaVuSans-Bold-6e" transform="translate(2647.607422 0.015625)"/>
     <use xlink:href="#DejaVuSans-Bold-65" transform="translate(2718.798828 0.015625)"/>
     <use xlink:href="#DejaVuSans-Bold-73" transform="translate(2786.621094 0.015625)"/>
     <use xlink:href="#DejaVuSans-Bold-20" transform="translate(2846.142578 0.015625)"/>
     <use xlink:href="#DejaVuSans-Bold-65" transform="translate(2880.957031 0.015625)"/>
     <use xlink:href="#DejaVuSans-Bold-6e" transform="translate(2948.779297 0.015625)"/>
     <use xlink:href="#DejaVuSans-Bold-74" transform="translate(3019.970703 0.015625)"/>
     <use xlink:href="#DejaVuSans-Bold-72" transform="translate(3067.773438 0.015625)"/>
     <use xlink:href="#DejaVuSans-Bold-61" transform="translate(3117.089844 0.015625)"/>
     <use xlink:href="#DejaVuSans-Bold-64" transform="translate(3184.570312 0.015625)"/>
     <use xlink:href="#DejaVuSans-Bold-61" transform="translate(3256.152344 0.015625)"/>
     <use xlink:href="#DejaVuSans-Bold-20" transform="translate(3323.632812 0.015625)"/>
     <use xlink:href="#DejaVuSans-2192" transform="translate(3377.929688 0.015625)"/>
     <use xlink:href="#DejaVuSans-Bold-20" transform="translate(3481.201172 0.015625)"/>
     <use xlink:href="#DejaVuSans-Bold-73" transform="translate(3516.015625 0.015625)"/>
     <use xlink:href="#DejaVuSans-Bold-61" transform="translate(3575.537109 0.015625)"/>
     <use xlink:href="#DejaVuSans-Bold-6c" transform="translate(3643.017578 0.015625)"/>
     <use xlink:href="#DejaVuSans-Bold-69" transform="translate(3677.294922 0.015625)"/>
     <use xlink:href="#DejaVuSans-Bold-64" transform="translate(3711.572266 0.015625)"/>
     <use xlink:href="#DejaVuSans-Bold-61" transform="translate(3783.154297 0.015625)"/>
    </g>
   </g>
  </g>
 </g>
 <defs>
  <clipPath id="p829e2c689f">
   <rect x="7.2" y="7.2" width="613.8" height="232.848"/>
  </clipPath>
 </defs>
</svg>
